Mell Sans 3-Black.ufo
<glyph name="numbersign" format="2">
	<advance width="704"/>
	<unicode hex="0023"/>
	<outline>
		<contour>
			<point x="608.935" y="177" type="line"/>
			<point x="616.157" y="307" type="line"/>
			<point x="514.191" y="307" type="line"/>
			<point x="527.119" y="434" type="line"/>
			<point x="635.55" y="434" type="line"/>
			<point x="645.627" y="565" type="line"/>
			<point x="541.075" y="565" type="line"/>
			<point x="556.075" y="720" type="line"/>
			<point x="445.684" y="720" type="line"/>
			<point x="431.684" y="565" type="line"/>
			<point x="324.075" y="565" type="line"/>
			<point x="339.075" y="720" type="line"/>
			<point x="229.684" y="720" type="line"/>
			<point x="215.684" y="565" type="line"/>
			<point x="95.4499" y="565" type="line"/>
			<point x="85.373" y="434" type="line"/>
			<point x="200.947" y="434" type="line"/>
			<point x="188.779" y="307" type="line"/>
			<point x="67.2668" y="307" type="line"/>
			<point x="58.6001" y="177" type="line"/>
			<point x="175.816" y="177" type="line"/>
			<point x="155.816" y="-20" type="line"/>
			<point x="265.123" y="-20" type="line"/>
			<point x="285.123" y="177" type="line"/>
			<point x="391.816" y="177" type="line"/>
			<point x="371.816" y="-20" type="line"/>
			<point x="481.123" y="-20" type="line"/>
			<point x="501.123" y="177" type="line"/>
		</contour>
		<contour>
			<point x="404.881" y="307" type="line"/>
			<point x="298.191" y="307" type="line"/>
			<point x="311.119" y="434" type="line"/>
			<point x="417.809" y="434" type="line"/>
		</contour>
	</outline>
</glyph>
<glyph name="percent" format="2">
	<advance width="696"/>
	<unicode hex="0025"/>
	<outline>
		<contour>
			<point x="658" y="700" type="line"/>
			<point x="542" y="700" type="line"/>
			<point x="101" y="0" type="line"/>
			<point x="213" y="0" type="line"/>
		</contour>
		<component base="_percent" xOffset="390" yOffset="-251"/>
		<component base="_percent" xOffset="69" yOffset="192"/>
	</outline>
</glyph>
<glyph name="ampersand" format="2">
	<advance width="679"/>
	<unicode hex="0026"/>
	<outline>
		<contour>
			<point x="174" y="194" type="curve"/>
			<point x="174" y="244.536"/>
			<point x="197.848" y="274.958"/>
			<point x="243.991" y="306.907" type="curve"/>
			<point x="388.108" y="123.004" type="line"/>
			<point x="361.711" y="102.162"/>
			<point x="330.367" y="91"/>
			<point x="292" y="91" type="curve"/>
			<point x="216.263" y="91"/>
			<point x="174" y="133.275"/>
		</contour>
		<contour>
			<point x="379" y="561" type="curve"/>
			<point x="379" y="512.87"/>
			<point x="341.954" y="485.138"/>
			<point x="281.247" y="452.824" type="curve"/>
			<point x="273.894" y="462.279" type="line"/>
			<point x="241.324" y="503.338"/>
			<point x="232" y="523.419"/>
			<point x="232" y="556" type="curve"/>
			<point x="232" y="593.235"/>
			<point x="255.914" y="623"/>
			<point x="308" y="623" type="curve"/>
			<point x="353.803" y="623.935"/>
			<point x="379" y="599.488"/>
		</contour>
		<contour>
			<point x="619" y="-20" type="line"/>
			<point x="619" y="30.9584" type="line"/>
			<point x="539.562" y="127.218" type="line"/>
			<point x="571.443" y="189.868"/>
			<point x="595.617" y="271.807"/>
			<point x="590.252" y="328.683" type="curve"/>
			<point x="479.306" y="368.916" type="line"/>
			<point x="482.839" y="304.947"/>
			<point x="472.479" y="273.167"/>
			<point x="457.454" y="232.41" type="curve"/>
			<point x="349.165" y="367.368" type="line"/>
			<point x="420.505" y="409.652"/>
			<point x="491" y="458.974"/>
			<point x="491" y="570" type="curve"/>
			<point x="491" y="660.985"/>
			<point x="424.702" y="741"/>
			<point x="311" y="741" type="curve"/>
			<point x="192.461" y="741"/>
			<point x="119" y="657.368"/>
			<point x="119" y="547" type="curve"/>
			<point x="119" y="510.172"/>
			<point x="129.529" y="470.112"/>
			<point x="149.538" y="433.174" type="curve"/>
			<point x="177.348" y="392.723" type="line"/>
			<point x="118.348" y="352.207"/>
			<point x="60" y="293.675"/>
			<point x="60" y="183" type="curve"/>
			<point x="60" y="61.0379"/>
			<point x="144.695" y="-27"/>
			<point x="279" y="-27" type="curve"/>
			<point x="346.974" y="-27"/>
			<point x="405.1" y="-5.5159"/>
			<point x="457.203" y="35.7844" type="curve"/>
			<point x="502.222" y="-20" type="line"/>
		</contour>
	</outline>
</glyph>
<glyph name="asterisk" format="2">
	<advance width="419"/>
	<unicode hex="002A"/>
	<outline>
		<contour>
			<point x="365.753" y="494.486" type="line"/>
			<point x="296.449" y="532.289" type="line"/>
			<point x="368.549" y="572.794" type="line"/>
			<point x="322.076" y="654.523" type="line"/>
			<point x="245" y="607.371" type="line"/>
			<point x="245" y="703" type="line"/>
			<point x="168" y="703" type="line"/>
			<point x="168" y="605.728" type="line"/>
			<point x="91.3823" y="654.983" type="line"/>
			<point x="52.0358" y="573.011" type="line"/>
			<point x="122.455" y="533" type="line"/>
			<point x="50.8044" y="492.289" type="line"/>
			<point x="94.7908" y="412.462" type="line"/>
			<point x="173" y="458.842" type="line"/>
			<point x="173" y="363" type="line"/>
			<point x="250" y="363" type="line"/>
			<point x="250" y="458.763" type="line"/>
			<point x="327.838" y="412.061" type="line"/>
		</contour>
	</outline>
</glyph>
<glyph name="zero" format="2">
	<advance width="588"/>
	<unicode hex="0030"/>
	<outline>
		<contour>
			<point x="286" y="109" type="line"/>
			<point x="286" y="-11" type="line"/>
			<point x="301" y="-11" type="line"/>
			<point x="301" y="109" type="line"/>
		</contour>
		<contour>
			<point x="286" y="706" type="line"/>
			<point x="286" y="586" type="line"/>
			<point x="301" y="586" type="line"/>
			<point x="301" y="706" type="line"/>
		</contour>
		<component base="_o_curve" xScale="-1" yScale="-1" xOffset="552" yOffset="505"/>
		<component base="_o_curve" yScale="-1" xOffset="36" yOffset="505"/>
		<component base="_o_curve" xScale="-1" xOffset="552" yOffset="190"/>
		<component base="_o_curve" xOffset="36" yOffset="190"/>
		<component base="_I_small" xOffset="40" yOffset="264"/>
		<component base="_I_small" xOffset="375" yOffset="263"/>
	</outline>
</glyph>
<glyph name="one" format="2">
	<advance width="332"/>
	<unicode hex="0031"/>
	<outline>
		<contour>
			<point x="40" y="668" type="line"/>
			<point x="60" y="547" type="line"/>
			<point x="262" y="594" type="line"/>
			<point x="262" y="670" type="line"/>
			<point x="207" y="716" type="line"/>
		</contour>
		<component base="_I_small" xOffset="119" yOffset="19"/>
		<component base="_I_small" xOffset="119" yOffset="168"/>
		<component base="_I_small" xOffset="119" yOffset="331"/>
		<component base="_I_small" xOffset="119" yOffset="477"/>
		<component base="ball" xOffset="-121" yOffset="203"/>
	</outline>
</glyph>
<glyph name="two" format="2">
	<advance width="522"/>
	<unicode hex="0032"/>
	<outline>
		<contour>
			<point x="155" y="190"/>
			<point x="39" y="61" type="curve"/>
			<point x="77" y="0" type="line"/>
			<point x="134" y="0" type="line"/>
			<point x="244" y="122"/>
			<point x="455" y="270"/>
			<point x="455" y="478" type="curve"/>
			<point x="455" y="615"/>
			<point x="377" y="716"/>
			<point x="231" y="716" type="curve"/>
			<point x="183" y="716"/>
			<point x="103" y="716"/>
			<point x="44" y="672" type="curve"/>
			<point x="69" y="548" type="line"/>
			<point x="108" y="568"/>
			<point x="169" y="582"/>
			<point x="230" y="582" type="curve"/>
			<point x="313" y="582"/>
			<point x="333" y="527"/>
			<point x="333" y="480" type="curve"/>
			<point x="333" y="312"/>
		</contour>
		<component base="_EF_horizontal" xScale="-1" yScale="-1" xOffset="463" yOffset="413"/>
		<component base="_EF_horizontal" xScale="-1" yScale="-1" xOffset="586" yOffset="413"/>
		<component base="ball" xScale="-1" xOffset="417" yOffset="-430"/>
	</outline>
</glyph>
<glyph name="five" format="2">
	<advance width="545"/>
	<unicode hex="0035"/>
	<outline>
		<contour>
			<point x="381" y="254" type="curve"/>
			<point x="381" y="227" type="line"/>
			<point x="381" y="77"/>
			<point x="495" y="68"/>
			<point x="495" y="252" type="curve"/>
			<point x="495" y="387"/>
			<point x="408" y="481"/>
			<point x="269" y="481" type="curve"/>
			<point x="178" y="481"/>
			<point x="146" y="466"/>
			<point x="114" y="450" type="curve"/>
			<point x="84" y="396" type="line"/>
			<point x="135" y="358" type="line"/>
			<point x="135" y="358"/>
			<point x="182" y="376"/>
			<point x="258" y="376" type="curve"/>
			<point x="326" y="376"/>
			<point x="381" y="333"/>
		</contour>
		<contour>
			<point x="495" y="257" type="line"/>
			<point x="495" y="341"/>
			<point x="381" y="365"/>
			<point x="381" y="257" type="curve"/>
			<point x="381" y="254" type="line"/>
			<point x="381" y="168"/>
			<point x="345" y="121"/>
			<point x="259" y="121" type="curve"/>
			<point x="190" y="121"/>
			<point x="134" y="133"/>
			<point x="91" y="166" type="curve"/>
			<point x="60" y="49" type="line"/>
			<point x="114" y="11"/>
			<point x="177" y="-8"/>
			<point x="259" y="-9" type="curve"/>
			<point x="405" y="-9"/>
			<point x="495" y="86"/>
			<point x="495" y="235" type="curve"/>
		</contour>
		<component base="_I_small" xOffset="54" yOffset="425"/>
		<component base="_I_small" xOffset="54" yOffset="512"/>
		<component base="_EF_horizontal" xOffset="112" yOffset="287"/>
		<component base="ball" xOffset="-214" yOffset="-73"/>
		<component base="_EF_horizontal" xOffset="42" yOffset="287"/>
	</outline>
</glyph>
<glyph name="six" format="2">
	<advance width="588"/>
	<unicode hex="0036"/>
	<outline>
		<contour>
			<point x="286" y="371" type="curve"/>
			<point x="315" y="371" type="line"/>
			<point x="305" y="481" type="line"/>
			<point x="186" y="481"/>
			<point x="131" y="370"/>
			<point x="131" y="222" type="curve"/>
			<point x="131" y="175"/>
			<point x="183" y="138"/>
			<point x="183" y="235" type="curve"/>
			<point x="183" y="322"/>
			<point x="211" y="371"/>
		</contour>
		<contour>
			<point x="292" y="381" type="line"/>
			<point x="298" y="371" type="line"/>
			<point x="300" y="371"/>
			<point x="302" y="371"/>
			<point x="304" y="371" type="curve"/>
			<point x="369" y="371"/>
			<point x="405" y="330"/>
			<point x="405" y="233" type="curve"/>
			<point x="405" y="203"/>
			<point x="518" y="218"/>
			<point x="518" y="248" type="curve"/>
			<point x="516" y="371"/>
			<point x="450" y="481"/>
			<point x="305" y="481" type="curve"/>
			<point x="295" y="461" type="line"/>
		</contour>
		<contour>
			<point x="286" y="99" type="line"/>
			<point x="286" y="-21" type="line"/>
			<point x="301" y="-21" type="line"/>
			<point x="301" y="99" type="line"/>
		</contour>
		<component base="_o_curve" xScale="-1" yScale="-1" xOffset="552" yOffset="495"/>
		<component base="_o_curve" yScale="-1" xOffset="36" yOffset="495"/>
		<component base="five-glyph" xScale="-1" yScale="-1" xOffset="527" yOffset="699"/>
		<component base="_I_small" xOffset="40" yOffset="265"/>
	</outline>
</glyph>
<glyph name="eight" format="2">
	<advance width="580"/>
	<unicode hex="0038"/>
	<outline>
		<contour>
			<point x="70" y="515" type="curve"/>
			<point x="70" y="473"/>
			<point x="89" y="412"/>
			<point x="125" y="363" type="curve"/>
			<point x="85" y="327"/>
			<point x="60" y="268"/>
			<point x="60" y="189" type="curve"/>
			<point x="60" y="63"/>
			<point x="138" y="-22"/>
			<point x="289" y="-22" type="curve"/>
			<point x="432" y="-22"/>
			<point x="520" y="71"/>
			<point x="520" y="189" type="curve"/>
			<point x="520" y="272"/>
			<point x="482" y="334"/>
			<point x="434" y="368" type="curve"/>
			<point x="480" y="402"/>
			<point x="510" y="467"/>
			<point x="510" y="515" type="curve"/>
			<point x="510" y="658"/>
			<point x="417" y="719"/>
			<point x="289" y="719" type="curve"/>
			<point x="151" y="719"/>
			<point x="70" y="657"/>
		</contour>
		<contour>
			<point x="176" y="203" type="curve"/>
			<point x="176" y="287"/>
			<point x="223" y="316"/>
			<point x="290" y="316" type="curve"/>
			<point x="354" y="316"/>
			<point x="402" y="284"/>
			<point x="402" y="211" type="curve"/>
			<point x="402" y="145"/>
			<point x="377" y="102"/>
			<point x="290" y="102" type="curve"/>
			<point x="198" y="102"/>
			<point x="176" y="145"/>
		</contour>
		<contour>
			<point x="186" y="505" type="curve"/>
			<point x="186" y="556"/>
			<point x="216" y="588"/>
			<point x="290" y="588" type="curve"/>
			<point x="363" y="588"/>
			<point x="392" y="555"/>
			<point x="392" y="512" type="curve"/>
			<point x="392" y="505" type="line"/>
			<point x="392" y="447"/>
			<point x="355" y="414"/>
			<point x="290" y="414" type="curve"/>
			<point x="289" y="414" type="line"/>
			<point x="222" y="414"/>
			<point x="186" y="445"/>
		</contour>
	</outline>
</glyph>
<glyph name="question" format="2">
	<advance width="518"/>
	<unicode hex="003F"/>
	<outline>
		<contour>
			<point x="323" y="522" type="curve" smooth="yes"/>
			<point x="323" y="485"/>
			<point x="306" y="453"/>
			<point x="216" y="369" type="curve" smooth="yes"/>
			<point x="160" y="317"/>
			<point x="160" y="268"/>
			<point x="160" y="205" type="curve"/>
			<point x="285" y="205" type="line"/>
			<point x="285" y="268"/>
			<point x="295" y="291"/>
			<point x="315" y="311" type="curve" smooth="yes"/>
			<point x="425" y="426"/>
			<point x="455" y="448"/>
			<point x="455" y="530" type="curve" smooth="yes"/>
			<point x="455" y="636"/>
			<point x="386" y="718"/>
			<point x="241" y="718" type="curve" smooth="yes"/>
			<point x="195" y="718"/>
			<point x="129" y="709"/>
			<point x="77" y="673" type="curve"/>
			<point x="95" y="553" type="line"/>
			<point x="136" y="574"/>
			<point x="184" y="594"/>
			<point x="240" y="594" type="curve" smooth="yes"/>
			<point x="309" y="594"/>
			<point x="323" y="550"/>
		</contour>
		<component base="_dot" xOffset="104" yOffset="-609"/>
	</outline>
</glyph>
<glyph name="at" format="2">
	<advance width="983"/>
	<unicode hex="0040"/>
	<outline>
		<contour>
			<point x="620.942" y="521" type="line"/>
			<point x="573.726" y="73" type="line"/>
			<point x="687.058" y="73" type="line"/>
			<point x="734.274" y="521" type="line"/>
		</contour>
		<contour>
			<point x="596.342" y="79.112" type="curve"/>
			<point x="636.948" y="470.588" type="line"/>
			<point x="603.484" y="520.629"/>
			<point x="551.349" y="534"/>
			<point x="504" y="534" type="curve"/>
			<point x="347.281" y="534"/>
			<point x="268.815" y="404.313"/>
			<point x="256.055" y="283.094" type="curve"/>
			<point x="249.05" y="212.99" type="line"/>
			<point x="236.108" y="77.0523"/>
			<point x="312.92" y="-28"/>
			<point x="429" y="-28" type="curve"/>
			<point x="515.289" y="-28"/>
			<point x="568.977" y="20.4877"/>
		</contour>
		<contour>
			<point x="361.932" y="217.678" type="curve"/>
			<point x="366.952" y="269.049" type="line"/>
			<point x="374.16" y="342.021"/>
			<point x="407.609" y="409"/>
			<point x="495" y="409" type="curve"/>
			<point x="563.558" y="409"/>
			<point x="596.796" y="389.03"/>
			<point x="607.69" y="380.616" type="curve"/>
			<point x="597.059" y="283.169" type="line"/>
			<point x="589.271" y="214.086"/>
			<point x="569.884" y="96"/>
			<point x="438" y="96" type="curve"/>
			<point x="377.153" y="96"/>
			<point x="353.933" y="149.24"/>
		</contour>
		<contour>
			<point x="774.009" y="117" type="curve"/>
			<point x="576.628" y="117" type="line"/>
			<point x="563.145" y="-102.955"/>
			<point x="770.508" y="-96.3564"/>
			<point x="844.099" y="5.2698" type="curve"/>
			<point x="888.902" y="67.6319"/>
			<point x="923" y="152.328"/>
			<point x="923" y="268" type="curve"/>
			<point x="923" y="573.468"/>
			<point x="725.554" y="710"/>
			<point x="491" y="710" type="curve"/>
			<point x="258.209" y="710"/>
			<point x="80" y="565.535"/>
			<point x="80" y="268" type="curve"/>
			<point x="80" y="-29.5792"/>
			<point x="258.221" y="-173"/>
			<point x="491" y="-173" type="curve"/>
			<point x="535.219" y="-173"/>
			<point x="579.537" y="-166.56"/>
			<point x="623.122" y="-152.665" type="curve"/>
			<point x="574.854" y="-31.9953" type="line"/>
			<point x="546.566" y="-39.3436"/>
			<point x="522.41" y="-44"/>
			<point x="490" y="-44" type="curve"/>
			<point x="304.117" y="-44"/>
			<point x="193" y="61.5674"/>
			<point x="193" y="273" type="curve"/>
			<point x="193" y="485.963"/>
			<point x="303.965" y="584"/>
			<point x="490" y="584" type="curve"/>
			<point x="676.305" y="584"/>
			<point x="807" y="485.01"/>
			<point x="807" y="273" type="curve"/>
			<point x="807" y="216.712"/>
			<point x="797.193" y="163.218"/>
			<point x="773.056" y="114.944" type="curve"/>
			<point x="773.429" y="115.797"/>
			<point x="773.724" y="116.395"/>
		</contour>
	</outline>
</glyph>
<glyph name="G" format="2">
	<advance width="611"/>
	<unicode hex="0047"/>
	<outline>
		<contour>
			<point x="365" y="92" type="line"/>
			<point x="379" y="38"/>
			<point x="509" y="46"/>
			<point x="534" y="71" type="curve" smooth="yes"/>
			<point x="551" y="88" type="line"/>
		</contour>
		<component base="_C_curve" xOffset="49" yOffset="24"/>
		<component base="_dash-small" xOffset="209" yOffset="50"/>
		<component base="_I_small" xOffset="408" yOffset="107"/>
		<component base="_dash-small" xOffset="159" yOffset="50"/>
		<component base="_C_lowe" xOffset="20" yOffset="18"/>
	</outline>
</glyph>
<glyph name="K" format="2">
	<advance width="555"/>
	<unicode hex="004B"/>
	<outline>
		<contour>
			<point x="290" y="356" type="line"/>
			<point x="546" y="700" type="line"/>
			<point x="393" y="700" type="line"/>
			<point x="202" y="439" type="line"/>
			<point x="204" y="266" type="line"/>
			<point x="393" y="2" type="line"/>
			<point x="546" y="2" type="line"/>
		</contour>
		<contour>
			<point x="300" y="222" type="curve"/>
			<point x="280" y="365"/>
			<point x="280" y="365"/>
			<point x="300" y="486" type="curve"/>
			<point x="230" y="486"/>
			<point x="170" y="426"/>
			<point x="170" y="354" type="curve" smooth="yes"/>
			<point x="170" y="282"/>
			<point x="230" y="222"/>
		</contour>
		<component base="_I" xOffset="30"/>
	</outline>
</glyph>
<glyph name="Q" format="2">
	<advance width="676"/>
	<unicode hex="0051"/>
	<outline>
		<contour>
			<point x="322" y="202" type="line"/>
			<point x="452" y="-100" type="line"/>
			<point x="560" y="-43" type="line"/>
			<point x="407" y="253" type="line"/>
		</contour>
		<component base="O"/>
	</outline>
</glyph>
<glyph name="R" format="2">
	<advance width="575"/>
	<unicode hex="0052"/>
	<outline>
		<contour>
			<point x="369" y="320" type="line"/>
			<point x="252" y="311" type="line"/>
			<point x="425" y="0" type="line"/>
			<point x="555" y="0" type="line"/>
		</contour>
		<contour>
			<point x="182" y="291" type="line"/>
			<point x="252" y="291"/>
			<point x="264" y="287"/>
			<point x="292" y="239" type="curve" smooth="yes"/>
			<point x="318" y="194" type="line"/>
			<point x="292" y="346" type="line"/>
			<point x="171" y="349" type="line"/>
		</contour>
		<component base="_I_small" xOffset="40" yOffset="513"/>
		<component base="_I_small" xOffset="40" yOffset="19"/>
		<component base="_I_small" xOffset="40" yOffset="164"/>
		<component base="_I_small" xOffset="40" yOffset="327"/>
		<component base="_I_small" xOffset="40" yOffset="473"/>
		<component base="_curve_B" xOffset="68" yOffset="-16"/>
	</outline>
</glyph>
<glyph name="S" format="2">
	<advance width="540"/>
	<unicode hex="0053"/>
	<outline>
		<contour>
			<point x="258" y="415" type="line"/>
			<point x="189" y="437"/>
			<point x="158" y="455"/>
			<point x="158" y="503" type="curve" smooth="yes"/>
			<point x="158" y="558"/>
			<point x="207" y="581"/>
			<point x="274" y="581" type="curve" smooth="yes"/>
			<point x="337" y="581"/>
			<point x="397" y="571"/>
			<point x="426" y="555" type="curve"/>
			<point x="443" y="674" type="line"/>
			<point x="410" y="687"/>
			<point x="353" y="711"/>
			<point x="274" y="711" type="curve" smooth="yes"/>
			<point x="125" y="711"/>
			<point x="44" y="634"/>
			<point x="44" y="514" type="curve" smooth="yes"/>
			<point x="44" y="404"/>
			<point x="91" y="352"/>
			<point x="195" y="319" type="curve"/>
			<point x="304" y="282" type="line"/>
			<point x="365" y="260"/>
			<point x="391" y="246"/>
			<point x="391" y="190" type="curve" smooth="yes"/>
			<point x="391" y="138"/>
			<point x="343" y="118"/>
			<point x="262" y="118" type="curve" smooth="yes"/>
			<point x="208" y="118"/>
			<point x="131" y="125"/>
			<point x="68" y="174" type="curve"/>
			<point x="37" y="58" type="line"/>
			<point x="100" y="7"/>
			<point x="176" y="-10"/>
			<point x="263" y="-10" type="curve" smooth="yes"/>
			<point x="419" y="-10"/>
			<point x="507" y="73"/>
			<point x="507" y="193" type="curve" smooth="yes"/>
			<point x="507" y="285"/>
			<point x="459" y="349"/>
			<point x="348" y="386" type="curve"/>
		</contour>
		<component base="S-curve"/>
	</outline>
</glyph>
<glyph name="Y" format="2">
	<advance width="641"/>
	<unicode hex="0059"/>
	<outline>
		<contour>
			<point x="367" y="284" type="line"/>
			<point x="631" y="700" type="line"/>
			<point x="488" y="700" type="line"/>
			<point x="312" y="408" type="line"/>
			<point x="151" y="700" type="line"/>
			<point x="10" y="700" type="line"/>
			<point x="254" y="284" type="line"/>
			<point x="254" y="0" type="line"/>
			<point x="367" y="0" type="line"/>
		</contour>
	</outline>
</glyph>
<glyph name="a" format="2">
	<advance width="505"/>
	<unicode hex="0061"/>
	<outline>
		<contour>
			<point x="330" y="209" type="line"/>
			<point x="330" y="0" type="line"/>
			<point x="443" y="0" type="line"/>
			<point x="442" y="152" type="line"/>
		</contour>
		<contour>
			<point x="330" y="287" type="curve"/>
			<point x="330" y="213"/>
			<point x="443" y="172"/>
			<point x="443" y="285" type="curve"/>
			<point x="443" y="450"/>
			<point x="367" y="513"/>
			<point x="228" y="513" type="curve"/>
			<point x="170" y="513"/>
			<point x="191" y="383"/>
			<point x="228" y="383" type="curve"/>
			<point x="298" y="383"/>
			<point x="330" y="360"/>
		</contour>
		<contour>
			<point x="222" y="302" type="line" smooth="yes"/>
			<point x="82" y="296"/>
			<point x="38" y="222"/>
			<point x="39" y="144" type="curve" smooth="yes"/>
			<point x="40" y="39"/>
			<point x="99" y="-11"/>
			<point x="202" y="-11" type="curve" smooth="yes"/>
			<point x="302" y="-11"/>
			<point x="364" y="81"/>
			<point x="400" y="112" type="curve"/>
			<point x="353" y="170" type="line"/>
			<point x="305" y="135"/>
			<point x="273" y="111"/>
			<point x="220" y="111" type="curve" smooth="yes"/>
			<point x="172" y="111"/>
			<point x="150" y="123"/>
			<point x="150" y="157" type="curve" smooth="yes"/>
			<point x="150" y="215"/>
			<point x="202" y="215"/>
			<point x="364" y="219" type="curve"/>
			<point x="404" y="230"/>
			<point x="383" y="308"/>
			<point x="349" y="307" type="curve" smooth="yes"/>
		</contour>
		<component base="_I_small" xOffset="300" yOffset="57"/>
		<component base="_I_small" xOffset="300" yOffset="97"/>
		<component base="_c" xScale="-1" xOffset="498" yOffset="-172"/>
	</outline>
</glyph>
<glyph name="d" format="2">
	<advance width="543"/>
	<unicode hex="0064"/>
	<outline>
		<contour>
			<point x="483" y="451" type="line"/>
			<point x="370" y="451" type="line"/>
			<point x="370" y="244" type="line"/>
			<point x="483" y="244" type="line"/>
		</contour>
		<contour>
			<point x="483" y="208" type="line"/>
			<point x="370" y="208" type="line"/>
			<point x="370" y="1" type="line"/>
			<point x="483" y="1" type="line"/>
		</contour>
		<component base="_I_small" xOffset="340" yOffset="98"/>
		<component base="_I_small" xOffset="340" yOffset="426"/>
		<component base="_I_small" xOffset="340" yOffset="563"/>
		<component base="_I_small" xOffset="340" yOffset="533"/>
		<component base="_I_small" xOffset="340" yOffset="165"/>
		<component base="_I_small" xOffset="340" yOffset="328"/>
		<component base="_I_small" xOffset="340" yOffset="474"/>
		<component base="_curve_b" xScale="-1" yScale="-1" xOffset="511" yOffset="500"/>
	</outline>
</glyph>
<glyph name="e" format="2">
	<advance width="501"/>
	<unicode hex="0065"/>
	<outline>
		<contour>
			<point x="459" y="212" type="line"/>
			<point x="463" y="232"/>
			<point x="461" y="263"/>
			<point x="459" y="282" type="curve"/>
			<point x="390" y="292" type="line"/>
			<point x="118" y="292" type="line"/>
			<point x="118" y="212" type="line"/>
		</contour>
		<component base="_o_curve" xOffset="6"/>
		<component base="_o_curve" xScale="-1" xOffset="495"/>
		<component base="_curve_cursive" xOffset="-10" yOffset="-3"/>
	</outline>
</glyph>
<glyph name="g" format="2">
	<advance width="522"/>
	<unicode hex="0067"/>
	<outline>
		<contour>
			<point x="277" y="399" type="curve"/>
			<point x="485" y="381" type="line"/>
			<point x="483" y="500" type="line"/>
			<point x="261" y="500" type="line"/>
			<point x="215" y="500"/>
			<point x="255" y="448"/>
		</contour>
		<contour>
			<point x="284" y="-211" type="line"/>
			<point x="396" y="-211"/>
			<point x="487" y="-162"/>
			<point x="487" y="-50" type="curve"/>
			<point x="487" y="61"/>
			<point x="421" y="120"/>
			<point x="282" y="120" type="curve"/>
			<point x="176" y="120"/>
			<point x="166" y="132"/>
			<point x="185" y="157" type="curve"/>
			<point x="190" y="188" type="line"/>
			<point x="124" y="213" type="line"/>
			<point x="71" y="172"/>
			<point x="57" y="70"/>
			<point x="136" y="36" type="curve"/>
			<point x="136" y="68" type="line"/>
			<point x="101" y="60"/>
			<point x="35" y="21"/>
			<point x="35" y="-57" type="curve"/>
			<point x="36" y="-135"/>
			<point x="56" y="-211"/>
			<point x="239" y="-211" type="curve"/>
		</contour>
		<contour>
			<point x="263" y="-101" type="curve"/>
			<point x="260" y="-101" type="line"/>
			<point x="178" y="-101"/>
			<point x="149" y="-90"/>
			<point x="148" y="-50" type="curve"/>
			<point x="149" y="-7"/>
			<point x="182" y="0"/>
			<point x="260" y="0" type="curve"/>
			<point x="263" y="0" type="line"/>
			<point x="339" y="0"/>
			<point x="373" y="-9"/>
			<point x="374" y="-49" type="curve"/>
			<point x="373" y="-93"/>
			<point x="345" y="-101"/>
		</contour>
		<contour>
			<point x="469" y="317" type="curve"/>
			<point x="469" y="419"/>
			<point x="345" y="438"/>
			<point x="272" y="440" type="curve"/>
			<point x="273" y="500" type="line"/>
			<point x="253" y="500" type="line"/>
			<point x="112" y="500"/>
			<point x="49" y="422"/>
			<point x="49" y="316" type="curve"/>
			<point x="49" y="315" type="line"/>
			<point x="53" y="211"/>
			<point x="122" y="145"/>
			<point x="253" y="145" type="curve"/>
			<point x="257" y="145" type="line"/>
			<point x="259" y="145"/>
			<point x="260" y="145"/>
			<point x="262" y="145" type="curve"/>
			<point x="266" y="145" type="line"/>
			<point x="397" y="145"/>
			<point x="469" y="209"/>
		</contour>
		<contour>
			<point x="265" y="235" type="curve"/>
			<point x="260" y="235" type="line"/>
			<point x="260" y="235"/>
			<point x="260" y="235"/>
			<point x="260" y="235" type="curve"/>
			<point x="254" y="235" type="line"/>
			<point x="179" y="235"/>
			<point x="162" y="255"/>
			<point x="162" y="311" type="curve"/>
			<point x="162" y="367"/>
			<point x="179" y="389"/>
			<point x="254" y="389" type="curve"/>
			<point x="260" y="389" type="line"/>
			<point x="260" y="389"/>
			<point x="260" y="389"/>
			<point x="260" y="389" type="curve"/>
			<point x="265" y="389" type="line"/>
			<point x="340" y="389"/>
			<point x="356" y="367"/>
			<point x="356" y="311" type="curve"/>
			<point x="356" y="255"/>
			<point x="340" y="235"/>
		</contour>
	</outline>
</glyph>
<glyph name="k" format="2">
	<advance width="505"/>
	<unicode hex="006B"/>
	<outline>
		<contour>
			<point x="279" y="256" type="line"/>
			<point x="458" y="500" type="line"/>
			<point x="325" y="500" type="line"/>
			<point x="194" y="317" type="line"/>
			<point x="193" y="192" type="line"/>
			<point x="325" y="0" type="line"/>
			<point x="458" y="0" type="line"/>
		</contour>
		<contour>
			<point x="269" y="155" type="curve"/>
			<point x="269" y="262"/>
			<point x="269" y="262"/>
			<point x="269" y="353" type="curve"/>
			<point x="216" y="353"/>
			<point x="171" y="308"/>
			<point x="171" y="254" type="curve" smooth="yes"/>
			<point x="171" y="200"/>
			<point x="216" y="155"/>
		</contour>
		<component base="_I_dbh" xOffset="30"/>
	</outline>
</glyph>
<glyph name="r" format="2">
	<advance width="413"/>
	<unicode hex="0072"/>
	<outline>
		<contour>
			<point x="363" y="364" type="curve"/>
			<point x="383" y="494" type="line"/>
			<point x="358" y="503"/>
			<point x="335" y="506"/>
			<point x="311" y="506" type="curve"/>
			<point x="238" y="506"/>
			<point x="170" y="446"/>
			<point x="159" y="376" type="curve"/>
			<point x="109" y="264" type="line"/>
			<point x="173" y="101" type="line"/>
			<point x="173" y="359"/>
			<point x="270" y="386"/>
		</contour>
		<component base="_i-dotless" xOffset="3"/>
	</outline>
</glyph>
<glyph name="s" format="2">
	<advance width="433"/>
	<unicode hex="0073"/>
	<outline>
		<contour>
			<point x="271" y="285" type="curve" smooth="yes"/>
			<point x="204" y="307" type="line" smooth="yes"/>
			<point x="180" y="315"/>
			<point x="158" y="327"/>
			<point x="158" y="350" type="curve" smooth="yes"/>
			<point x="158" y="374"/>
			<point x="176" y="387"/>
			<point x="213" y="387" type="curve"/>
			<point x="259" y="388"/>
			<point x="271" y="519"/>
			<point x="207" y="517" type="curve" smooth="yes"/>
			<point x="128" y="517"/>
			<point x="46" y="461.595"/>
			<point x="46" y="366" type="curve" smooth="yes"/>
			<point x="46" y="289"/>
			<point x="104" y="240"/>
			<point x="178" y="220" type="curve"/>
			<point x="229" y="204" type="line" smooth="yes"/>
			<point x="253" y="196"/>
			<point x="283" y="188"/>
			<point x="283" y="146" type="curve" smooth="yes"/>
			<point x="283" y="103"/>
			<point x="241" y="101"/>
			<point x="213" y="101" type="curve" smooth="yes"/>
			<point x="180" y="101"/>
			<point x="128" y="104"/>
			<point x="80" y="139" type="curve"/>
			<point x="33" y="43" type="line"/>
			<point x="69" y="12"/>
			<point x="131" y="-17"/>
			<point x="221" y="-17" type="curve" smooth="yes"/>
			<point x="314" y="-17"/>
			<point x="394" y="50"/>
			<point x="394" y="135" type="curve" smooth="yes"/>
			<point x="394" y="223"/>
			<point x="339" y="263"/>
		</contour>
		<component base="_c" xOffset="-58" yOffset="-168"/>
	</outline>
</glyph>
<glyph name="t" format="2">
	<advance width="488"/>
	<unicode hex="0074"/>
	<outline>
		<contour>
			<point x="162" y="638" type="line"/>
			<point x="23" y="453" type="line"/>
			<point x="57" y="380" type="line"/>
			<point x="128" y="380" type="line"/>
			<point x="128" y="202" type="line"/>
			<point x="128" y="42"/>
			<point x="241" y="100"/>
			<point x="241" y="202" type="curve"/>
			<point x="241" y="380" type="line"/>
			<point x="398" y="380" type="line"/>
			<point x="398" y="500" type="line"/>
			<point x="241" y="500" type="line"/>
			<point x="241" y="610" type="line"/>
		</contour>
		<component base="_curve_lower" xOffset="35" yOffset="1"/>
		<component base="ball" xOffset="-141" yOffset="146"/>
		<component base="ball" xOffset="-288" yOffset="-50"/>
	</outline>
</glyph>
<glyph name="y" format="2">
	<advance width="501"/>
	<unicode hex="0079"/>
	<outline>
		<contour>
			<point x="478" y="500" type="line"/>
			<point x="354" y="500" type="line"/>
			<point x="254" y="210" type="line"/>
			<point x="147" y="500" type="line"/>
			<point x="15" y="500" type="line"/>
			<point x="196" y="24" type="line"/>
			<point x="161" y="-49" type="line" smooth="yes"/>
			<point x="146" y="-79"/>
			<point x="105" y="-89"/>
			<point x="63" y="-75" type="curve"/>
			<point x="72" y="-200" type="line"/>
			<point x="149" y="-212"/>
			<point x="238" y="-196"/>
			<point x="280" y="-73" type="curve" smooth="yes"/>
		</contour>
	</outline>
</glyph>
<glyph name="braceleft" format="2">
	<advance width="509"/>
	<unicode hex="007B"/>
	<outline>
		<contour>
			<point x="449" y="-215" type="line"/>
			<point x="449" y="-85" type="line"/>
			<point x="410" y="-85" type="line"/>
			<point x="352.045" y="-85"/>
			<point x="323.97" y="-65.6751"/>
			<point x="319" y="-24.0767" type="curve"/>
			<point x="319" y="153" type="line"/>
			<point x="319" y="244.717"/>
			<point x="275.956" y="298.83"/>
			<point x="205.866" y="304.925" type="curve"/>
			<point x="206.574" y="265.249" type="line"/>
			<point x="276.175" y="276.345"/>
			<point x="318" y="330.472"/>
			<point x="318" y="420" type="curve"/>
			<point x="318" y="541.931" type="line"/>
			<point x="322.95" y="582.198"/>
			<point x="351.097" y="601"/>
			<point x="410" y="601" type="curve"/>
			<point x="449" y="601" type="line"/>
			<point x="449" y="733" type="line"/>
			<point x="393" y="733" type="line"/>
			<point x="254.845" y="733"/>
			<point x="197" y="652.017"/>
			<point x="197" y="533" type="curve"/>
			<point x="197" y="429" type="line"/>
			<point x="197" y="373.57"/>
			<point x="180.619" y="351"/>
			<point x="91" y="351" type="curve"/>
			<point x="60" y="351" type="line"/>
			<point x="60" y="221" type="line"/>
			<point x="91" y="221" type="line"/>
			<point x="176.747" y="221"/>
			<point x="197" y="193.017"/>
			<point x="197" y="141" type="curve"/>
			<point x="197" y="-17" type="line"/>
			<point x="197" y="-147.532"/>
			<point x="267.898" y="-215"/>
			<point x="393" y="-215" type="curve"/>
		</contour>
	</outline>
</glyph>
<glyph name="braceright" format="2">
	<advance width="506"/>
	<unicode hex="007D"/>
	<outline>
		<contour>
			<point x="60" y="-214" type="line"/>
			<point x="116" y="-214" type="line"/>
			<point x="241.102" y="-214"/>
			<point x="312" y="-146.532"/>
			<point x="312" y="-16" type="curve"/>
			<point x="312" y="142" type="line"/>
			<point x="312" y="194.017"/>
			<point x="332.253" y="222"/>
			<point x="418" y="222" type="curve"/>
			<point x="449" y="222" type="line"/>
			<point x="449" y="352" type="line"/>
			<point x="418" y="352" type="line"/>
			<point x="328.381" y="352"/>
			<point x="312" y="374.57"/>
			<point x="312" y="430" type="curve"/>
			<point x="312" y="534" type="line"/>
			<point x="312" y="653.017"/>
			<point x="254.155" y="734"/>
			<point x="116" y="734" type="curve"/>
			<point x="60" y="734" type="line"/>
			<point x="60" y="602" type="line"/>
			<point x="99" y="602" type="line"/>
			<point x="157.903" y="602"/>
			<point x="186.05" y="583.198"/>
			<point x="191" y="542.931" type="curve"/>
			<point x="191" y="421" type="line"/>
			<point x="191" y="331.472"/>
			<point x="232.825" y="277.345"/>
			<point x="302.426" y="266.249" type="curve"/>
			<point x="303.134" y="305.925" type="line"/>
			<point x="233.044" y="299.83"/>
			<point x="190" y="245.717"/>
			<point x="190" y="154" type="curve"/>
			<point x="190" y="-23.0767" type="line"/>
			<point x="185.03" y="-64.6751"/>
			<point x="156.955" y="-84"/>
			<point x="99" y="-84" type="curve"/>
			<point x="60" y="-84" type="line"/>
		</contour>
	</outline>
</glyph>
<glyph name="currency" format="2">
	<advance width="565"/>
	<unicode hex="00A4"/>
	<outline>
		<contour>
			<point x="221.022" y="519.236" type="line"/>
			<point x="142.047" y="599.211" type="line"/>
			<point x="48.8948" y="507.353" type="line"/>
			<point x="131.269" y="422.811" type="line"/>
			<point x="134.715" y="431.428" type="line"/>
			<point x="128.216" y="415.739"/>
			<point x="123" y="392.267"/>
			<point x="123" y="369" type="curve"/>
			<point x="123" y="346.733"/>
			<point x="128.158" y="323.522"/>
			<point x="134.68" y="306.751" type="curve"/>
			<point x="134.513" y="307.675" type="line"/>
			<point x="134.613" y="307.375"/>
			<point x="136.74" y="296.047"/>
			<point x="138.929" y="293.858" type="curve"/>
			<point x="138.882" y="322.047" type="line"/>
			<point x="50.783" y="232.758" type="line"/>
			<point x="144.002" y="140.834" type="line"/>
			<point x="222.86" y="218.681" type="line"/>
			<point x="242.495" y="211.62"/>
			<point x="260.397" y="209"/>
			<point x="279" y="209" type="curve"/>
			<point x="298.524" y="209"/>
			<point x="316.485" y="211.618"/>
			<point x="336.115" y="218.672" type="curve"/>
			<point x="419" y="135.787" type="line"/>
			<point x="512.325" y="229.111" type="line"/>
			<point x="430.769" y="309.647" type="line"/>
			<point x="425.202" y="302.996"/>
			<point x="422.002" y="299.624"/>
			<point x="420.3" y="298.2" type="curve"/>
			<point x="429.854" y="315.155"/>
			<point x="437" y="343.134"/>
			<point x="437" y="369" type="curve"/>
			<point x="437" y="397.055"/>
			<point x="429.209" y="426.34"/>
			<point x="419.396" y="441.584" type="curve"/>
			<point x="437.607" y="432.692"/>
			<point x="429.629" y="420.575"/>
			<point x="420.944" y="437.944" type="curve"/>
			<point x="419.113" y="414.943" type="line"/>
			<point x="516.23" y="513.23" type="line"/>
			<point x="422.976" y="605.189" type="line"/>
			<point x="347" y="529.213" type="line"/>
			<point x="347" y="514.502" type="line"/>
			<point x="322.729" y="526.386"/>
			<point x="301.898" y="530"/>
			<point x="279" y="530" type="curve"/>
			<point x="259.604" y="530"/>
			<point x="240.904" y="527.141"/>
			<point x="219.935" y="518.148" type="curve"/>
		</contour>
		<contour>
			<point x="279" y="418" type="curve"/>
			<point x="321.81" y="418"/>
			<point x="347.691" y="382.07"/>
			<point x="332.938" y="350.458" type="curve"/>
			<point x="332.769" y="349.692" type="line"/>
			<point x="327.276" y="336.509"/>
			<point x="305.284" y="321"/>
			<point x="279" y="321" type="curve"/>
			<point x="260.27" y="321"/>
			<point x="244.65" y="325.723"/>
			<point x="237.328" y="333.609" type="curve"/>
			<point x="237.071" y="334.142" type="line"/>
			<point x="223.633" y="347.58"/>
			<point x="221" y="355.041"/>
			<point x="221" y="369" type="curve"/>
			<point x="221" y="374.733"/>
			<point x="221.574" y="377.315"/>
			<point x="225.944" y="386.056" type="curve"/>
			<point x="226.138" y="386.877" type="line"/>
			<point x="233.521" y="403.489"/>
			<point x="253.757" y="418"/>
		</contour>
	</outline>
</glyph>
<glyph name="section" format="2">
	<advance width="608"/>
	<unicode hex="00A7"/>
	<outline>
		<contour>
			<point x="466.027" y="50.1068" type="curve"/>
			<point x="517.095" y="90.1516"/>
			<point x="548" y="152.578"/>
			<point x="548" y="212" type="curve"/>
			<point x="548" y="415.69"/>
			<point x="235" y="475.35"/>
			<point x="235" y="549" type="curve"/>
			<point x="235" y="562.113"/>
			<point x="235.719" y="563.14"/>
			<point x="258.547" y="578.359" type="curve"/>
			<point x="273.992" y="589.295"/>
			<point x="304.076" y="599"/>
			<point x="351" y="599" type="curve"/>
			<point x="396.854" y="599"/>
			<point x="437.863" y="593.05"/>
			<point x="488" y="579.319" type="curve"/>
			<point x="488" y="712.96" type="line"/>
			<point x="443.556" y="722.334"/>
			<point x="397.694" y="728"/>
			<point x="353" y="728" type="curve"/>
			<point x="167.562" y="728"/>
			<point x="116" y="620.885"/>
			<point x="116" y="540" type="curve"/>
			<point x="116" y="506.11"/>
			<point x="128.533" y="477.065"/>
			<point x="142.542" y="457.382" type="curve"/>
			<point x="89.3522" y="417.077"/>
			<point x="60" y="351.226"/>
			<point x="60" y="295" type="curve"/>
			<point x="60" y="92.3911"/>
			<point x="376" y="29.7509"/>
			<point x="376" y="-38" type="curve"/>
			<point x="376" y="-75.4736"/>
			<point x="338.749" y="-94"/>
			<point x="249" y="-94" type="curve"/>
			<point x="183.038" y="-94"/>
			<point x="135.933" y="-83.5014"/>
			<point x="78" y="-64.7952" type="curve"/>
			<point x="78" y="-204.643" type="line"/>
			<point x="135.372" y="-218.303"/>
			<point x="173.365" y="-226"/>
			<point x="253" y="-226" type="curve"/>
			<point x="358.15" y="-226"/>
			<point x="494" y="-169.935"/>
			<point x="494" y="-32" type="curve"/>
			<point x="494" y="-0.90449"/>
			<point x="481.191" y="29.1995"/>
		</contour>
		<contour>
			<point x="376.029" y="123.26" type="curve"/>
			<point x="279.791" y="184.331"/>
			<point x="174" y="233.153"/>
			<point x="174" y="303" type="curve"/>
			<point x="174" y="325.181"/>
			<point x="191.232" y="360.484"/>
			<point x="230.928" y="381.746" type="curve"/>
			<point x="324.62" y="320.677"/>
			<point x="435" y="274.381"/>
			<point x="435" y="204" type="curve"/>
			<point x="435" y="182.893"/>
			<point x="416.16" y="145.724"/>
		</contour>
	</outline>
</glyph>
<glyph name="degree" format="2">
	<advance width="427"/>
	<unicode hex="00B0"/>
	<outline>
		<contour>
			<point x="214" y="407" type="curve"/>
			<point x="294.213" y="407"/>
			<point x="367" y="479.787"/>
			<point x="367" y="571" type="curve"/>
			<point x="367" y="661.213"/>
			<point x="294.213" y="734"/>
			<point x="214" y="734" type="curve"/>
			<point x="132.787" y="734"/>
			<point x="60" y="661.213"/>
			<point x="60" y="571" type="curve"/>
			<point x="60" y="479.787"/>
			<point x="132.787" y="407"/>
		</contour>
		<contour>
			<point x="215" y="513" type="curve"/>
			<point x="174.371" y="513"/>
			<point x="147" y="541.139"/>
			<point x="147" y="572" type="curve"/>
			<point x="147" y="600.854"/>
			<point x="174.371" y="629"/>
			<point x="215" y="629" type="curve"/>
			<point x="254.696" y="629"/>
			<point x="283" y="600.665"/>
			<point x="283" y="572" type="curve"/>
			<point x="283" y="541.328"/>
			<point x="254.696" y="513"/>
		</contour>
	</outline>
</glyph>
<glyph name="paragraph" format="2">
	<advance width="591"/>
	<unicode hex="00B6"/>
	<outline>
		<contour>
			<point x="335" y="296.074" type="line"/>
			<point x="141.134" y="298.974"/>
			<point x="80" y="386.607"/>
			<point x="80" y="489" type="curve"/>
			<point x="80" y="593.413"/>
			<point x="157.486" y="679"/>
			<point x="343" y="679" type="curve"/>
			<point x="511" y="679" type="line"/>
			<point x="511" y="21" type="line"/>
			<point x="439" y="21" type="line"/>
			<point x="439" y="647" type="line"/>
			<point x="335" y="647" type="line"/>
		</contour>
	</outline>
</glyph>
<glyph name="cedilla" format="2">
	<advance width="600"/>
	<unicode hex="00B8"/>
	<outline>
		<contour>
			<point x="237.744" y="25.1181" type="line"/>
			<point x="218.523" y="-91.6867" type="line"/>
			<point x="224" y="-96"/>
			<point x="294" y="-65"/>
			<point x="294" y="-110" type="curve"/>
			<point x="294" y="-158"/>
			<point x="254" y="-154"/>
			<point x="218" y="-139" type="curve"/>
			<point x="197.491" y="-229.563" type="line"/>
			<point x="299.19" y="-255.245"/>
			<point x="397" y="-247.825"/>
			<point x="397" y="-117" type="curve"/>
			<point x="397" y="-30.6913"/>
			<point x="349.653" y="-14.508"/>
			<point x="323.905" y="-12.0777" type="curve"/>
			<point x="334.318" y="36.8636" type="line"/>
		</contour>
	</outline>
</glyph>
<glyph name="germandbls" format="2">
	<advance width="597"/>
	<unicode hex="00DF"/>
	<outline>
		<contour>
			<point x="537" y="139" type="curve"/>
			<point x="537" y="281.539"/>
			<point x="359" y="320.346"/>
			<point x="359" y="374" type="curve"/>
			<point x="359" y="424.157"/>
			<point x="491" y="434.151"/>
			<point x="491" y="571" type="curve"/>
			<point x="491" y="670.439"/>
			<point x="426.134" y="733"/>
			<point x="293" y="733" type="curve"/>
			<point x="162.391" y="733"/>
			<point x="60" y="659.234"/>
			<point x="60" y="504" type="curve"/>
			<point x="60" y="-20" type="line"/>
			<point x="178" y="-20" type="line"/>
			<point x="178" y="485" type="line"/>
			<point x="178" y="522.754"/>
			<point x="179.355" y="539.01"/>
			<point x="184.575" y="547.71" type="curve"/>
			<point x="184.742" y="548.287" type="line"/>
			<point x="187.033" y="552.412"/>
			<point x="193.454" y="561.241"/>
			<point x="206.071" y="573.858" type="curve"/>
			<point x="220.438" y="589.071"/>
			<point x="251.197" y="600"/>
			<point x="285" y="600" type="curve"/>
			<point x="346.708" y="600"/>
			<point x="373.549" y="585.782"/>
			<point x="373.003" y="564.513" type="curve"/>
			<point x="373" y="564" type="line"/>
			<point x="373" y="505.988"/>
			<point x="242" y="500.894"/>
			<point x="242" y="370" type="curve"/>
			<point x="242" y="292.69"/>
			<point x="293.65" y="249.256"/>
			<point x="334.118" y="219.825" type="curve"/>
			<point x="369.389" y="194.726"/>
			<point x="394.652" y="179.917"/>
			<point x="404.753" y="155.385" type="curve"/>
			<point x="404.586" y="156.255" type="line"/>
			<point x="421.656" y="108.602"/>
			<point x="396.908" y="102.083"/>
			<point x="325.566" y="98.9811" type="curve"/>
			<point x="300.004" y="99"/>
			<point x="267.241" y="102.971"/>
			<point x="255.008" y="108.323" type="curve"/>
			<point x="241" y="90" type="line"/>
			<point x="241" y="-18.2696" type="line"/>
			<point x="256.927" y="-21.189"/>
			<point x="299.159" y="-28"/>
			<point x="340" y="-28" type="curve"/>
			<point x="483.546" y="-28"/>
			<point x="537" y="57.6216"/>
		</contour>
	</outline>
</glyph>
<glyph name="eth" format="2">
	<advance width="558"/>
	<unicode hex="00F0"/>
	<outline>
		<contour>
			<point x="256.395" y="479.809" type="line"/>
			<point x="482.282" y="739.118" type="line"/>
			<point x="348.728" y="764.242" type="line"/>
			<point x="111.761" y="499.532" type="line"/>
		</contour>
		<component base="six" xScale="-1" xOffset="558"/>
	</outline>
</glyph>
<glyph name="ring" format="2">
	<advance width="600"/>
	<unicode hex="02DA"/>
	<outline>
		<contour>
			<point x="307.5" y="510" type="curve"/>
			<point x="378.025" y="510"/>
			<point x="443" y="574.975"/>
			<point x="443" y="655.5" type="curve"/>
			<point x="443" y="736.025"/>
			<point x="378.025" y="801"/>
			<point x="307.5" y="801" type="curve"/>
			<point x="236.975" y="801"/>
			<point x="172" y="736.025"/>
			<point x="172" y="655.5" type="curve"/>
			<point x="172" y="574.975"/>
			<point x="236.975" y="510"/>
		</contour>
		<contour>
			<point x="308" y="618" type="curve"/>
			<point x="281.343" y="618"/>
			<point x="263" y="636.403"/>
			<point x="263" y="653" type="curve"/>
			<point x="263" y="670.34"/>
			<point x="281.25" y="688"/>
			<point x="308" y="688" type="curve"/>
			<point x="334.75" y="688"/>
			<point x="353" y="670.34"/>
			<point x="353" y="653" type="curve"/>
			<point x="353" y="636.403"/>
			<point x="334.657" y="618"/>
		</contour>
	</outline>
</glyph>
<glyph name="ogonek" format="2">
	<advance width="600"/>
	<unicode hex="02DB"/>
	<outline>
		<contour>
			<point x="371.118" y="-234.429" type="curve"/>
			<point x="382.937" y="-129.233" type="line"/>
			<point x="372.17" y="-107.069" type="line"/>
			<point x="360.999" y="-108"/>
			<point x="346" y="-108"/>
			<point x="337" y="-108" type="curve"/>
			<point x="303.682" y="-108"/>
			<point x="297" y="-100.455"/>
			<point x="297" y="-90" type="curve"/>
			<point x="297" y="-67.3406"/>
			<point x="307.445" y="-53.1233"/>
			<point x="345" y="-41.737" type="curve"/>
			<point x="345" y="20" type="line"/>
			<point x="243.692" y="20" type="line"/>
			<point x="172.394" y="-23.1266"/>
			<point x="171" y="-80.8055"/>
			<point x="171" y="-115" type="curve"/>
			<point x="171" y="-176.581"/>
			<point x="228.547" y="-240"/>
			<point x="305" y="-240" type="curve"/>
			<point x="324.004" y="-240"/>
			<point x="351.778" y="-238.749"/>
		</contour>
	</outline>
</glyph>
<glyph name="uni0414" format="2">
	<advance width="629"/>
	<unicode hex="0414"/>
	<outline>
		<contour>
			<point x="14" y="75" type="line"/>
			<point x="21" y="59" type="line"/>
			<point x="34" y="55"/>
			<point x="72" y="68"/>
			<point x="74" y="68" type="curve"/>
			<point x="131" y="68"/>
			<point x="240" y="59"/>
			<point x="240" y="206" type="curve"/>
			<point x="240" y="395" type="line"/>
			<point x="127" y="395" type="line"/>
			<point x="127" y="198" type="line"/>
			<point x="127" y="151"/>
			<point x="97" y="118"/>
			<point x="8" y="121" type="curve"/>
		</contour>
		<component base="_I_small" xOffset="97" yOffset="328"/>
		<component base="_I_small" xOffset="97" yOffset="474"/>
		<component base="_I" xOffset="417"/>
		<component base="_EF_horizontal" xOffset="-112" yOffset="-293"/>
		<component base="_EF_horizontal" xOffset="3" yOffset="288"/>
		<component base="_EF_horizontal" xOffset="140" yOffset="288"/>
		<component base="_EF_horizontal" xOffset="106" yOffset="-293"/>
		<component base="_D_cyr" xScale="-1" xOffset="672" yOffset="19"/>
		<component base="_D_cyr" xOffset="-43" yOffset="19"/>
	</outline>
</glyph>
<glyph name="uni0431" format="2">
	<advance width="558"/>
	<unicode hex="0431"/>
	<outline>
		<contour>
			<point x="165.3" y="216.523" type="line"/>
			<point x="181.961" y="404.232" type="line"/>
			<point x="192.003" y="513.657"/>
			<point x="196.744" y="636.638"/>
			<point x="472.12" y="590.439" type="curve"/>
			<point x="442.344" y="716.988" type="line"/>
			<point x="110.66" y="771.298"/>
			<point x="61" y="557.476"/>
			<point x="61" y="355" type="curve"/>
			<point x="61" y="328.224"/>
			<point x="60" y="261.224"/>
			<point x="60" y="242" type="curve"/>
			<point x="69.4262" y="222.033" type="line"/>
		</contour>
		<contour>
			<point x="281" y="396" type="curve"/>
			<point x="291" y="406" type="line"/>
			<point x="283" y="516" type="line"/>
			<point x="195" y="516"/>
			<point x="121" y="426"/>
			<point x="121" y="277" type="curve"/>
			<point x="121" y="230"/>
			<point x="173" y="173"/>
			<point x="173" y="270" type="curve"/>
			<point x="173" y="338"/>
			<point x="200" y="396"/>
			<point x="275" y="396" type="curve"/>
			<point x="277" y="396"/>
			<point x="279" y="396"/>
		</contour>
		<component base="_o_curve" xScale="-1" yScale="-1" xOffset="532" yOffset="495"/>
		<component base="_o_curve" yScale="-1" xOffset="26" yOffset="495"/>
		<component base="_o_curve" xScale="-1" xOffset="532"/>
	</outline>
</glyph>
<glyph name="uni0447" format="2">
	<advance width="528"/>
	<unicode hex="0447"/>
	<outline>
		<contour>
			<point x="173" y="346" type="curve"/>
			<point x="173" y="437"/>
			<point x="60" y="429"/>
			<point x="60" y="315" type="curve"/>
			<point x="60" y="190"/>
			<point x="128" y="132"/>
			<point x="270" y="142" type="curve"/>
			<point x="432" y="154" type="line"/>
			<point x="410" y="275" type="line"/>
			<point x="287" y="264" type="line"/>
			<point x="202" y="256"/>
			<point x="173" y="291"/>
		</contour>
		<component base="_I_small" xOffset="325" yOffset="20"/>
		<component base="_I_small" xOffset="325" yOffset="165"/>
		<component base="_I_small" xOffset="325" yOffset="309"/>
		<component base="_I_small" xOffset="30" yOffset="312"/>
	</outline>
</glyph>
<glyph name="uni044F" format="2">
	<advance width="499"/>
	<unicode hex="044F"/>
	<outline>
		<contour>
			<point x="182" y="0" type="line"/>
			<point x="233.619" y="100.86" type="line"/>
			<point x="259.418" y="145.481"/>
			<point x="305.059" y="135.121"/>
			<point x="337.587" y="137.035" type="curve"/>
			<point x="346.099" y="137.758"/>
			<point x="409.692" y="193.574"/>
			<point x="348.499" y="209.366" type="curve"/>
			<point x="334.018" y="213.005"/>
			<point x="202.931" y="194.991"/>
			<point x="198.997" y="194.997" type="curve"/>
			<point x="127" y="188"/>
			<point x="115" y="131"/>
			<point x="69" y="43" type="curve"/>
			<point x="50" y="0" type="line"/>
		</contour>
		<component base="_i-dotless" xOffset="269"/>
		<component base="_ya_cyr" xOffset="-30" yOffset="-150"/>
	</outline>
</glyph>
<glyph name="bullet" format="2">
	<advance width="435"/>
	<unicode hex="2022"/>
	<outline>
		<contour>
			<point x="218" y="170" type="curve"/>
			<point x="301.072" y="170"/>
			<point x="375" y="239.379"/>
			<point x="375" y="326" type="curve"/>
			<point x="375" y="414.621"/>
			<point x="301.072" y="484"/>
			<point x="218" y="484" type="curve"/>
			<point x="135.992" y="484"/>
			<point x="60" y="414.814"/>
			<point x="60" y="326" type="curve"/>
			<point x="60" y="239.186"/>
			<point x="135.992" y="170"/>
		</contour>
	</outline>
</glyph>
<glyph name="radical" format="2">
	<advance width="730"/>
	<unicode hex="221A"/>
	<outline>
		<contour>
			<point x="60" y="449" type="line"/>
			<point x="60" y="390.251" type="line"/>
			<point x="224.042" y="-106" type="line"/>
			<point x="282.263" y="-106" type="line"/>
			<point x="315.457" y="3.41506" type="line"/>
			<point x="166.928" y="449" type="line"/>
		</contour>
		<component base="_EF_horizontal" xOffset="324" yOffset="308"/>
		<component base="_backslash" xScale="-1" xOffset="595" yOffset="1"/>
	</outline>
</glyph>
<glyph name="infinity" format="2">
	<advance width="871"/>
	<unicode hex="221E"/>
	<outline>
		<contour>
			<point x="273" y="136" type="curve"/>
			<point x="334.442" y="136"/>
			<point x="400.952" y="167.9"/>
			<point x="433.52" y="217.443" type="curve"/>
			<point x="458.985" y="170.021"/>
			<point x="494.602" y="132.916"/>
			<point x="587.902" y="132" type="curve"/>
			<point x="725.606" y="130.988"/>
			<point x="809.915" y="229.718"/>
			<point x="811" y="358.832" type="curve"/>
			<point x="812.087" y="489.374"/>
			<point x="720.497" y="592"/>
			<point x="591" y="592" type="curve"/>
			<point x="527.831" y="592"/>
			<point x="466.154" y="556.154"/>
			<point x="433.372" y="513.376" type="curve"/>
			<point x="402.924" y="557.712"/>
			<point x="341.457" y="592"/>
			<point x="275" y="592" type="curve"/>
			<point x="143.244" y="592"/>
			<point x="61.0841" y="490.965"/>
			<point x="60" y="364.171" type="curve"/>
			<point x="58.9161" y="226.467"/>
			<point x="141.565" y="136"/>
		</contour>
		<contour>
			<point x="589.137" y="267.998" type="curve"/>
			<point x="515.385" y="268.956"/>
			<point x="477.195" y="308.829"/>
			<point x="477.999" y="362.702" type="curve"/>
			<point x="478" y="416.294"/>
			<point x="518.124" y="454"/>
			<point x="583" y="454" type="curve"/>
			<point x="591" y="454" type="line"/>
			<point x="659.954" y="453.042"/>
			<point x="701" y="416.017"/>
			<point x="701" y="361" type="curve"/>
			<point x="700.198" y="306.716"/>
			<point x="658.845" y="267.043"/>
		</contour>
		<contour>
			<point x="273" y="270" type="curve"/>
			<point x="200.052" y="270"/>
			<point x="170.171" y="309.214"/>
			<point x="170.999" y="364.702" type="curve"/>
			<point x="171" y="419.823"/>
			<point x="202.685" y="456.947"/>
			<point x="267.855" y="456.002" type="curve"/>
			<point x="275" y="456" type="line"/>
			<point x="344.924" y="456"/>
			<point x="386" y="418.162"/>
			<point x="386" y="363" type="curve"/>
			<point x="386" y="362" type="line"/>
			<point x="386" y="356" type="line"/>
			<point x="385.223" y="307.287"/>
			<point x="343.011" y="270"/>
		</contour>
	</outline>
</glyph>
<glyph name="S-curve" format="2">
	<advance width="540"/>
	<outline>
		<contour>
			<point x="276" y="581" type="line"/>
			<point x="330" y="584"/>
			<point x="384" y="570"/>
			<point x="428" y="550" type="curve"/>
			<point x="453" y="679" type="line"/>
			<point x="396" y="700"/>
			<point x="339" y="713"/>
			<point x="275" y="711" type="curve"/>
		</contour>
	</outline>
</glyph>
<glyph name="_A" format="2">
	<advance width="590"/>
	<outline>
		<contour>
			<point x="570" y="0" type="line"/>
			<point x="306" y="729" type="line"/>
			<point x="284" y="729" type="line"/>
			<point x="11" y="0" type="line"/>
			<point x="134" y="0" type="line"/>
			<point x="296" y="454" type="line"/>
			<point x="446" y="0" type="line"/>
		</contour>
	</outline>
</glyph>
<glyph name="_C_curve" format="2">
	<advance width="506"/>
	<outline>
		<contour>
			<point x="431" y="523" type="curve"/>
			<point x="456" y="642" type="line"/>
			<point x="409" y="673"/>
			<point x="356" y="687"/>
			<point x="282" y="685" type="curve" smooth="yes"/>
			<point x="134" y="682"/>
			<point x="1" y="599"/>
			<point x="1" y="321" type="curve" smooth="yes"/>
			<point x="1" y="69"/>
			<point x="115" y="121"/>
			<point x="115" y="352" type="curve" smooth="yes"/>
			<point x="115" y="508"/>
			<point x="199" y="566"/>
			<point x="286" y="565" type="curve" smooth="yes"/>
			<point x="345" y="564"/>
			<point x="394" y="545"/>
		</contour>
	</outline>
</glyph>
<glyph name="_C_lowe" format="2">
	<advance width="492"/>
	<outline>
		<contour>
			<point x="30" y="458"/>
			<point x="30" y="298" type="curve"/>
			<point x="30" y="55"/>
			<point x="188" y="-25"/>
			<point x="306" y="-26" type="curve"/>
			<point x="388" y="-25"/>
			<point x="462" y="5"/>
			<point x="514" y="53" type="curve"/>
			<point x="454" y="160" type="line"/>
			<point x="413" y="124"/>
			<point x="364" y="104"/>
			<point x="306" y="104" type="curve"/>
			<point x="237" y="104"/>
			<point x="144" y="142"/>
			<point x="144" y="307" type="curve"/>
			<point x="144" y="466"/>
		</contour>
	</outline>
</glyph>
<glyph name="_D" format="2">
	<advance width="533"/>
	<outline>
		<contour>
			<point x="480" y="389" type="curve"/>
			<point x="480" y="188"/>
			<point x="593" y="214"/>
			<point x="593" y="389" type="curve"/>
			<point x="593" y="612"/>
			<point x="463" y="718"/>
			<point x="283" y="721" type="curve"/>
			<point x="212" y="722"/>
			<point x="120.116" y="720.794"/>
			<point x="72" y="710.988" type="curve"/>
			<point x="72" y="579.802" type="line"/>
			<point x="113.299" y="593.77"/>
			<point x="216" y="596"/>
			<point x="270" y="596" type="curve"/>
			<point x="406" y="596"/>
			<point x="480" y="514"/>
		</contour>
	</outline>
</glyph>
<glyph name="_D_cyr" format="2">
	<advance width="600"/>
	<outline>
		<contour>
			<point x="484.713" y="100.927" type="line"/>
			<point x="492.178" y="-20" type="line"/>
			<point x="550" y="-20" type="line"/>
			<point x="550" y="-154" type="line"/>
			<point x="662.093" y="-154" type="line"/>
			<point x="660.907" y="102.064" type="line"/>
		</contour>
	</outline>
</glyph>
<glyph name="_EF_horizontal" format="2">
	<advance width="600"/>
	<outline>
		<contour>
			<point x="124" y="413" type="line"/>
			<point x="124" y="292" type="line"/>
			<point x="346" y="292" type="line"/>
			<point x="346" y="413" type="line"/>
		</contour>
	</outline>
</glyph>
<glyph name="_I_dbh" format="2">
	<advance width="509"/>
	<outline>
		<contour>
			<point x="30" y="451" type="line"/>
			<point x="30" y="244" type="line"/>
			<point x="143" y="244" type="line"/>
			<point x="143" y="451" type="line"/>
		</contour>
		<component base="_I_small" yOffset="98"/>
		<component base="_I_small" yOffset="426"/>
		<component base="_I_small" yOffset="562"/>
		<component base="_I_small" yOffset="533"/>
		<component base="_I_small" yOffset="21"/>
		<component base="_I_small" yOffset="165"/>
		<component base="_I_small" yOffset="328"/>
		<component base="_I_small" yOffset="474"/>
	</outline>
</glyph>
<glyph name="_I_small" format="2">
	<advance width="469"/>
	<outline>
		<contour>
			<point x="30" y="188" type="line"/>
			<point x="30" y="-19" type="line"/>
			<point x="143" y="-19" type="line"/>
			<point x="143" y="188" type="line"/>
		</contour>
	</outline>
</glyph>
<glyph name="_M" format="2">
	<advance width="642"/>
	<outline>
		<contour>
			<point x="530" y="536" type="line"/>
			<point x="613" y="547" type="line"/>
			<point x="612" y="707" type="line"/>
			<point x="602" y="728" type="line"/>
			<point x="537" y="739" type="line"/>
			<point x="293" y="431" type="line"/>
			<point x="302" y="313" type="line"/>
			<point x="342" y="292" type="line"/>
		</contour>
		<component base="ball" xOffset="-33" yOffset="-155"/>
		<component base="ball" xOffset="229" yOffset="239"/>
	</outline>
</glyph>
<glyph name="_N" format="2">
	<advance width="618"/>
	<outline>
		<contour>
			<point x="469" y="79" type="line"/>
			<point x="485" y="221" type="line"/>
			<point x="139" y="693" type="line"/>
			<point x="61" y="668" type="line"/>
			<point x="60" y="474" type="line"/>
			<point x="152" y="472" type="line"/>
		</contour>
	</outline>
</glyph>
<glyph name="_O" format="2">
	<advance width="900"/>
	<outline>
		<contour>
			<point x="301.565" y="594" type="line"/>
			<point x="302" y="727" type="line"/>
			<point x="284" y="727" type="line"/>
			<point x="120" y="727"/>
			<point x="10" y="592"/>
			<point x="10" y="361" type="curve"/>
			<point x="10" y="360"/>
			<point x="123" y="362"/>
			<point x="123" y="363" type="curve"/>
			<point x="123" y="536"/>
			<point x="192" y="594"/>
			<point x="295" y="594" type="curve"/>
		</contour>
	</outline>
</glyph>
<glyph name="_P" format="2">
	<advance width="513"/>
	<outline>
		<contour>
			<point x="490" y="484" type="line"/>
			<point x="490" y="619.142"/>
			<point x="390" y="710"/>
			<point x="251" y="712" type="curve"/>
			<point x="176" y="713"/>
			<point x="100" y="713"/>
			<point x="60" y="713" type="curve"/>
			<point x="60" y="572.875" type="line"/>
			<point x="87.2697" y="590.12"/>
			<point x="178" y="589"/>
			<point x="242" y="587" type="curve"/>
			<point x="326" y="587"/>
			<point x="366" y="548"/>
			<point x="366" y="481" type="curve"/>
			<point x="365" y="404"/>
			<point x="333.49" y="362"/>
			<point x="242" y="362" type="curve"/>
			<point x="177.766" y="359.706"/>
			<point x="87.2697" y="371.88"/>
			<point x="60" y="389.125" type="curve"/>
			<point x="60" y="275" type="line"/>
			<point x="100" y="268"/>
			<point x="176" y="259"/>
			<point x="251" y="260" type="curve"/>
			<point x="390" y="262"/>
			<point x="490" y="342.858"/>
			<point x="490" y="478" type="curve"/>
			<point x="490" y="479"/>
			<point x="490" y="480"/>
			<point x="490" y="481" type="curve"/>
		</contour>
	</outline>
</glyph>
<glyph name="_R_slash" format="2">
	<advance width="533"/>
	<outline>
		<contour>
			<point x="305.699" y="395" type="line"/>
			<point x="183.664" y="395" type="line"/>
			<point x="376.323" y="-18" type="line"/>
			<point x="427" y="-19" type="line"/>
			<point x="470" y="42" type="line"/>
		</contour>
		<component base="ball" xOffset="91" yOffset="-449"/>
	</outline>
</glyph>
<glyph name="_x_" format="2">
	<advance width="483"/>
	<outline>
		<contour>
			<point x="240" y="179" type="line"/>
			<point x="284" y="179" type="line"/>
			<point x="471" y="498" type="line"/>
			<point x="327" y="498" type="line"/>
			<point x="240" y="319" type="line"/>
		</contour>
	</outline>
</glyph>
<glyph name="_Z" format="2">
	<advance width="661"/>
	<outline>
		<contour>
			<point x="212" y="111" type="line"/>
			<point x="237" y="81" type="line"/>
			<point x="629" y="648" type="line"/>
			<point x="599" y="720" type="line"/>
			<point x="538" y="720" type="line"/>
			<point x="232" y="251" type="line"/>
		</contour>
		<component base="ball" xOffset="257" yOffset="205"/>
	</outline>
</glyph>
<glyph name="_acute" format="2">
	<advance width="600"/>
	<outline>
		<contour>
			<point x="285.841" y="788.097" type="line"/>
			<point x="293.473" y="771.339"/>
			<point x="219.991" y="629.529"/>
			<point x="190.641" y="570" type="curve"/>
			<point x="291" y="570" type="line"/>
			<point x="295.488" y="570"/>
			<point x="410.219" y="762.692"/>
			<point x="386.013" y="786.905" type="curve"/>
		</contour>
	</outline>
</glyph>
<glyph name="_backslash" format="2">
	<advance width="600"/>
	<outline>
		<contour>
			<point x="60" y="700" type="line"/>
			<point x="286" y="0" type="line"/>
			<point x="385" y="0" type="line"/>
			<point x="161" y="700" type="line"/>
		</contour>
	</outline>
</glyph>
<glyph name="_bracket" format="2">
	<advance width="600"/>
	<outline>
		<contour>
			<point x="401.726" y="-210.655" type="curve"/>
			<point x="496.569" y="-141.555" type="line"/>
			<point x="360.431" y="-14.5667"/>
			<point x="296" y="120.72"/>
			<point x="296" y="270" type="curve"/>
			<point x="296" y="419.201"/>
			<point x="359.285" y="552.265"/>
			<point x="496.507" y="681.688" type="curve"/>
			<point x="402.676" y="749.682" type="line"/>
			<point x="235.427" y="593.468"/>
			<point x="170" y="426.624"/>
			<point x="170" y="264" type="curve"/>
			<point x="170" y="88.7403"/>
			<point x="250.801" y="-73.559"/>
		</contour>
	</outline>
</glyph>
<glyph name="_breve" format="2">
	<advance width="600"/>
	<outline>
		<contour>
			<point x="100" y="779" type="line"/>
			<point x="90.0501" y="760.999" type="line"/>
			<point x="90.0501" y="761.222"/>
			<point x="66.3526" y="566"/>
			<point x="289" y="566" type="curve"/>
			<point x="393.283" y="566"/>
			<point x="391.794" y="689"/>
			<point x="267" y="689" type="curve"/>
			<point x="224.121" y="689"/>
			<point x="199.836" y="730.061"/>
			<point x="208.879" y="779" type="curve"/>
		</contour>
	</outline>
</glyph>
<glyph name="_c" format="2">
	<advance width="506"/>
	<outline>
		<contour>
			<point x="266" y="555" type="line"/>
			<point x="320" y="558"/>
			<point x="370" y="543"/>
			<point x="404" y="523" type="curve"/>
			<point x="429" y="652" type="line"/>
			<point x="382" y="673"/>
			<point x="328.771" y="686.506"/>
			<point x="264.777" y="684.868" type="curve"/>
		</contour>
	</outline>
</glyph>
<glyph name="_cedilla_fragment" format="2">
	<advance width="600"/>
	<outline>
		<contour>
			<point x="287" y="447.595" type="curve"/>
			<point x="287" y="296.999" type="line"/>
			<point x="324.517" y="273.221"/>
			<point x="363.33" y="251.951"/>
			<point x="421.182" y="253.003" type="curve"/>
			<point x="480.577" y="254.045"/>
			<point x="520.613" y="274.663"/>
			<point x="564.597" y="325.454" type="curve"/>
			<point x="535.841" y="447.325" type="line"/>
			<point x="498.376" y="412.337"/>
			<point x="458.097" y="391.105"/>
			<point x="414.744" y="389.993" type="curve"/>
			<point x="364.026" y="390"/>
			<point x="327.035" y="423.137"/>
		</contour>
	</outline>
</glyph>
<glyph name="_circle" format="2">
	<advance width="515"/>
	<outline>
		<contour>
			<point x="258" y="36" type="curve"/>
			<point x="433.197" y="36"/>
			<point x="584" y="185.741"/>
			<point x="584" y="372" type="curve"/>
			<point x="584" y="557.213"/>
			<point x="433.213" y="708"/>
			<point x="258" y="708" type="curve"/>
			<point x="81.7703" y="708"/>
			<point x="-68" y="557.167"/>
			<point x="-68" y="372" type="curve"/>
			<point x="-68" y="185.787"/>
			<point x="81.7868" y="36"/>
		</contour>
		<contour>
			<point x="257" y="133" type="curve"/>
			<point x="118.453" y="133"/>
			<point x="14" y="246.682"/>
			<point x="14" y="375" type="curve"/>
			<point x="14" y="504.043"/>
			<point x="118.346" y="613"/>
			<point x="257" y="613" type="curve"/>
			<point x="395.675" y="613"/>
			<point x="501" y="503.984"/>
			<point x="501" y="375" type="curve"/>
			<point x="501" y="246.741"/>
			<point x="395.57" y="133"/>
		</contour>
	</outline>
</glyph>
<glyph name="_circum_part" format="2">
	<advance width="600"/>
	<outline>
		<contour>
			<point x="252.254" y="361" type="line"/>
			<point x="250.87" y="253.083" type="line"/>
			<point x="348.336" y="137" type="line"/>
			<point x="448" y="137" type="line"/>
			<point x="448" y="183.207" type="line"/>
			<point x="295.606" y="361" type="line"/>
		</contour>
	</outline>
</glyph>
<glyph name="_curve_B" format="2">
	<advance width="469"/>
	<outline>
		<contour>
			<point x="226" y="716" type="curve"/>
			<point x="128" y="717"/>
			<point x="52" y="717"/>
			<point x="22" y="716" type="curve"/>
			<point x="22" y="576.318" type="line"/>
			<point x="43.8401" y="593.852"/>
			<point x="139" y="596"/>
			<point x="227" y="594" type="curve"/>
			<point x="307" y="591"/>
			<point x="338" y="556"/>
			<point x="338" y="502" type="curve"/>
			<point x="338" y="429"/>
			<point x="301" y="408"/>
			<point x="201" y="408" type="curve"/>
			<point x="76" y="408" type="line"/>
			<point x="54" y="317" type="line"/>
			<point x="247" y="317" type="line"/>
			<point x="388" y="317"/>
			<point x="462" y="401"/>
			<point x="462" y="508" type="curve"/>
			<point x="462" y="644"/>
			<point x="372" y="714"/>
		</contour>
	</outline>
</glyph>
<glyph name="_curve_b" format="2">
	<advance width="493"/>
	<outline>
		<contour>
			<point x="282" y="500" type="curve"/>
			<point x="76" y="500"/>
			<point x="130" y="307"/>
			<point x="132" y="254" type="curve"/>
			<point x="117" y="136" type="line"/>
			<point x="151" y="99" type="line"/>
			<point x="151" y="314"/>
			<point x="184" y="373"/>
			<point x="253" y="373" type="curve"/>
			<point x="310" y="373"/>
			<point x="338" y="327"/>
			<point x="337" y="241" type="curve"/>
			<point x="337" y="153"/>
			<point x="299" y="106"/>
			<point x="245" y="105" type="curve"/>
			<point x="179" y="104"/>
			<point x="162" y="123"/>
			<point x="119" y="143" type="curve"/>
			<point x="114" y="108" type="line"/>
			<point x="138" y="42"/>
			<point x="176" y="-11"/>
			<point x="261" y="-11" type="curve"/>
			<point x="390" y="-11"/>
			<point x="449" y="100"/>
			<point x="449" y="232" type="curve"/>
			<point x="450" y="256" type="line"/>
			<point x="448" y="395"/>
			<point x="392" y="500"/>
		</contour>
	</outline>
</glyph>
<glyph name="_curve_cursive" format="2">
	<advance width="537"/>
	<outline>
		<contour>
			<point x="50" y="257" type="curve"/>
			<point x="50" y="235" type="line"/>
			<point x="50" y="86"/>
			<point x="150" y="-9"/>
			<point x="266" y="-9" type="curve"/>
			<point x="328" y="-8"/>
			<point x="381" y="11"/>
			<point x="435" y="49" type="curve"/>
			<point x="404" y="166" type="line"/>
			<point x="361" y="133"/>
			<point x="315" y="121"/>
			<point x="276" y="121" type="curve"/>
			<point x="220" y="121"/>
			<point x="164" y="178"/>
			<point x="164" y="254" type="curve"/>
			<point x="164" y="257" type="line"/>
			<point x="164" y="365"/>
			<point x="50" y="340.88"/>
		</contour>
	</outline>
</glyph>
<glyph name="_curve_generic" format="2">
	<advance width="600"/>
	<outline>
		<contour>
			<point x="347" y="498" type="curve"/>
			<point x="347" y="406.79"/>
			<point x="460" y="384.949"/>
			<point x="460" y="499" type="curve"/>
			<point x="460" y="619.435"/>
			<point x="392.446" y="723.018"/>
			<point x="251.928" y="721.999" type="curve"/>
			<point x="88.8067" y="720.905" type="line"/>
			<point x="111.196" y="600" type="line"/>
			<point x="233" y="600" type="line"/>
			<point x="316.89" y="600"/>
			<point x="347" y="559.74"/>
		</contour>
	</outline>
</glyph>
<glyph name="_curve_lower" format="2">
	<advance width="476"/>
	<outline>
		<contour>
			<point x="419.361" y="72.4315" type="curve"/>
			<point x="339" y="158" type="line"/>
			<point x="306" y="131"/>
			<point x="304" y="121"/>
			<point x="267" y="121" type="curve"/>
			<point x="231" y="121"/>
			<point x="206" y="142"/>
			<point x="206" y="194" type="curve"/>
			<point x="206" y="368" type="line"/>
			<point x="93" y="368" type="line"/>
			<point x="93" y="159" type="line"/>
			<point x="93" y="45"/>
			<point x="154" y="-9"/>
			<point x="262" y="-9" type="curve"/>
			<point x="337.747" y="-9"/>
			<point x="376.775" y="24.3716"/>
		</contour>
	</outline>
</glyph>
<glyph name="_curve_lower_big" format="2">
	<advance width="526"/>
	<outline>
		<contour>
			<point x="-320" y="-22" type="curve"/>
			<point x="-322" y="108" type="line"/>
			<point x="-405" y="104"/>
			<point x="-439" y="160"/>
			<point x="-439" y="241" type="curve"/>
			<point x="-439" y="261" type="line"/>
			<point x="-439" y="369"/>
			<point x="-553" y="345"/>
			<point x="-553" y="261" type="curve"/>
			<point x="-553" y="222" type="line"/>
			<point x="-553" y="70"/>
			<point x="-453" y="-27"/>
		</contour>
		<component base="_c" yScale="-1" xOffset="-609" yOffset="663"/>
	</outline>
</glyph>
<glyph name="_d_curl" format="2">
	<advance width="494"/>
	<outline>
		<contour>
			<point x="261" y="398.913" type="curve"/>
			<point x="261" y="530.675" type="line"/>
			<point x="163.678" y="536.899"/>
			<point x="128.798" y="452.794"/>
			<point x="84.7582" y="363.066" type="curve"/>
			<point x="126.866" y="275.947" type="line"/>
			<point x="185.414" y="392.928"/>
			<point x="191.529" y="399.986"/>
		</contour>
	</outline>
</glyph>
<glyph name="_dash-small" format="2">
	<advance width="600"/>
	<outline>
		<contour>
			<point x="160" y="343" type="line"/>
			<point x="160" y="222" type="line"/>
			<point x="342" y="222" type="line"/>
			<point x="342" y="343" type="line"/>
		</contour>
	</outline>
</glyph>
<glyph name="_dot" format="2">
	<advance width="260"/>
	<outline>
		<contour>
			<point x="131" y="579" type="curve"/>
			<point x="172.953" y="579"/>
			<point x="217" y="614"/>
			<point x="217" y="669" type="curve"/>
			<point x="217" y="725"/>
			<point x="173.017" y="761"/>
			<point x="131" y="761" type="curve"/>
			<point x="87.9829" y="761"/>
			<point x="44" y="725"/>
			<point x="44" y="669" type="curve"/>
			<point x="44" y="614"/>
			<point x="88.0467" y="579"/>
		</contour>
	</outline>
</glyph>
<glyph name="_ending_cursive" format="2">
	<advance width="537"/>
	<outline>
		<contour>
			<point x="271.226" y="104.466" type="curve"/>
			<point x="269.778" y="-25.7804" type="line"/>
			<point x="346.663" y="-29.0518"/>
			<point x="399.94" y="4.51693"/>
			<point x="443.289" y="55.5579" type="curve"/>
			<point x="383.162" y="161.114" type="line"/>
			<point x="350.024" y="122.47"/>
			<point x="313.435" y="100.467"/>
		</contour>
	</outline>
</glyph>
<glyph name="_exclamation" format="2">
	<advance width="600"/>
	<outline>
		<contour>
			<point x="53.1041" y="719" type="line"/>
			<point x="74.8395" y="218" type="line"/>
			<point x="186.161" y="218" type="line"/>
			<point x="207.896" y="719" type="line"/>
		</contour>
	</outline>
</glyph>
<glyph name="_f_integral" format="2">
	<advance width="390"/>
	<outline>
		<contour>
			<point x="405.885" y="716.806" type="line"/>
			<point x="346.052" y="746.062"/>
			<point x="315" y="753"/>
			<point x="273" y="753" type="curve"/>
			<point x="184" y="753"/>
			<point x="117" y="680.675"/>
			<point x="117" y="595" type="curve"/>
			<point x="117" y="346" type="line"/>
			<point x="230" y="346" type="line"/>
			<point x="230" y="533" type="line"/>
			<point x="230" y="593.14"/>
			<point x="251.516" y="616.041"/>
			<point x="287.27" y="617.007" type="curve"/>
			<point x="325.593" y="618.103"/>
			<point x="345.298" y="607.234"/>
			<point x="383.376" y="588.787" type="curve"/>
		</contour>
	</outline>
</glyph>
<glyph name="_fraction_slash" format="2">
	<advance width="810"/>
	<outline>
		<contour>
			<point x="473" y="700" type="line"/>
			<point x="406" y="700" type="line"/>
			<point x="172" y="1" type="line"/>
			<point x="247" y="1" type="line"/>
		</contour>
	</outline>
</glyph>
<glyph name="_g_loop" format="2">
	<advance width="538"/>
	<outline>
		<contour>
			<point x="221" y="-55" type="curve"/>
			<point x="211.003" y="-74.5063" type="line"/>
			<point x="229.503" y="-176" type="line"/>
			<point x="229.002" y="-176"/>
			<point x="228.501" y="-176"/>
			<point x="228" y="-176" type="curve"/>
			<point x="361.303" y="-176"/>
			<point x="419.704" y="-115.228"/>
			<point x="421.997" y="-15.4596" type="curve"/>
			<point x="422" y="15.2171"/>
			<point x="309" y="15.2171"/>
			<point x="309" y="-15" type="curve"/>
			<point x="309" y="-37.8083"/>
			<point x="291.79" y="-55"/>
			<point x="227" y="-55" type="curve"/>
			<point x="225" y="-55"/>
			<point x="223" y="-55"/>
		</contour>
	</outline>
</glyph>
<glyph name="_g_two_storey" format="2">
	<advance width="538"/>
	<outline>
		<contour>
			<point x="271" y="393" type="curve"/>
			<point x="280.998" y="412.556" type="line"/>
			<point x="262.548" y="523" type="line"/>
			<point x="263.032" y="523"/>
			<point x="263.516" y="523"/>
			<point x="264" y="523" type="curve"/>
			<point x="122.177" y="523"/>
			<point x="52.2011" y="434.966"/>
			<point x="50.0022" y="329.417" type="curve"/>
			<point x="50" y="298.682"/>
			<point x="163" y="299.884"/>
			<point x="163" y="330" type="curve"/>
			<point x="163" y="362.566"/>
			<point x="190.505" y="393"/>
			<point x="265" y="393" type="curve"/>
			<point x="267" y="393"/>
			<point x="269" y="393"/>
		</contour>
	</outline>
</glyph>
<glyph name="_hmn" format="2">
	<advance width="600"/>
	<outline>
		<contour>
			<point x="271" y="511" type="curve"/>
			<point x="172" y="511"/>
			<point x="125" y="408"/>
			<point x="116" y="286" type="curve"/>
			<point x="148" y="100" type="line"/>
			<point x="150" y="191"/>
			<point x="177" y="389"/>
			<point x="261" y="389" type="curve"/>
			<point x="325" y="389"/>
			<point x="331" y="330"/>
			<point x="331" y="249" type="curve"/>
			<point x="331" y="0" type="line" smooth="yes"/>
			<point x="444" y="0" type="line"/>
			<point x="444" y="293" type="line"/>
			<point x="442" y="438"/>
			<point x="395" y="511"/>
		</contour>
	</outline>
</glyph>
<glyph name="_i_dotless_full" format="2">
	<advance width="323"/>
	<outline>
		<contour>
			<point x="70" y="500" type="line"/>
			<point x="70" y="380" type="line"/>
			<point x="232" y="380" type="line"/>
			<point x="232" y="500" type="line"/>
		</contour>
		<component base="_I_small" xOffset="101" yOffset="143"/>
		<component base="_I_small" xOffset="101" yOffset="272"/>
		<component base="_I_small" xOffset="101" yOffset="312"/>
		<component base="_I_small" xOffset="101" yOffset="20"/>
	</outline>
</glyph>
<glyph name="_k_cyr" format="2">
	<advance width="600"/>
	<outline>
		<contour>
			<point x="132.107" y="313.895" type="line"/>
			<point x="105.016" y="207.125" type="line"/>
			<point x="251.235" y="205.983" type="line"/>
			<point x="279.16" y="246.194" type="line"/>
			<point x="496.835" y="518" type="line"/>
			<point x="345.015" y="518" type="line"/>
			<point x="191.988" y="314.964" type="line"/>
		</contour>
	</outline>
</glyph>
<glyph name="_less_equal" format="2">
	<advance width="600"/>
	<outline>
		<contour>
			<point x="500" y="362.093" type="line"/>
			<point x="500" y="429.136" type="line"/>
			<point x="105.248" y="626" type="line"/>
			<point x="72" y="626" type="line"/>
			<point x="72" y="502.477" type="line"/>
			<point x="381.807" y="360.998" type="line"/>
		</contour>
	</outline>
</glyph>
<glyph name="_m_curve" format="2">
	<advance width="741"/>
	<outline>
		<contour>
			<point x="246" y="511" type="curve"/>
			<point x="147" y="511"/>
			<point x="100" y="408"/>
			<point x="91" y="286" type="curve"/>
			<point x="123" y="100" type="line"/>
			<point x="125" y="191"/>
			<point x="122" y="389"/>
			<point x="226" y="389" type="curve"/>
			<point x="270" y="389"/>
			<point x="276" y="330"/>
			<point x="276" y="249" type="curve"/>
			<point x="276" y="0" type="line" smooth="yes"/>
			<point x="389" y="0" type="line"/>
			<point x="389" y="293" type="line"/>
			<point x="387" y="438"/>
			<point x="340" y="511"/>
		</contour>
	</outline>
</glyph>
<glyph name="_m_cyr" format="2">
	<advance width="682"/>
	<outline>
		<contour>
			<point x="194.631" y="520" type="line"/>
			<point x="159.751" y="520" type="line"/>
			<point x="10" y="28.4033" type="line"/>
			<point x="10" y="-19" type="line"/>
			<point x="123.882" y="-19" type="line"/>
			<point x="199.882" y="282" type="line"/>
			<point x="225.883" y="282" type="line"/>
		</contour>
	</outline>
</glyph>
<glyph name="_m_cyr_2" format="2">
	<advance width="682"/>
	<outline>
		<contour>
			<point x="139" y="498" type="line"/>
			<point x="139" y="420" type="line"/>
			<point x="352" y="181" type="line"/>
			<point x="426" y="218" type="line"/>
			<point x="405" y="293" type="line"/>
			<point x="214" y="516" type="line"/>
		</contour>
		<component base="ball" xOffset="50" yOffset="-267"/>
		<component base="ball" xOffset="-160" yOffset="17"/>
	</outline>
</glyph>
<glyph name="_multiply" format="2">
	<advance width="561"/>
	<outline>
		<contour>
			<point x="353.86" y="199.646" type="line"/>
			<point x="433.661" y="279.448" type="line"/>
			<point x="198.363" y="530.068" type="line"/>
			<point x="114.135" y="458.066" type="line"/>
		</contour>
	</outline>
</glyph>
<glyph name="_o_curve" format="2">
	<advance width="900"/>
	<outline>
		<contour>
			<point x="253" y="396" type="curve"/>
			<point x="253" y="516" type="line"/>
			<point x="110" y="516"/>
			<point x="36" y="405"/>
			<point x="34" y="247" type="curve"/>
			<point x="147" y="246" type="line"/>
			<point x="147" y="363"/>
			<point x="181" y="396"/>
		</contour>
	</outline>
</glyph>
<glyph name="_one.001" format="2">
	<advance width="600"/>
	<outline>
		<contour>
			<point x="38" y="677.54" type="line"/>
			<point x="38" y="556.866" type="line"/>
			<point x="260" y="604.124" type="line"/>
			<point x="260" y="720" type="line"/>
			<point x="209.965" y="720" type="line"/>
		</contour>
		<component base="_I_small" xOffset="117" yOffset="3"/>
		<component base="_I_small" xOffset="117" yOffset="168"/>
		<component base="_I_small" xOffset="117" yOffset="331"/>
		<component base="_I_small" xOffset="117" yOffset="477"/>
		<component base="_dash-small" xOffset="-1" yOffset="-219"/>
		<component base="_dash-small" xOffset="-84" yOffset="-219"/>
	</outline>
</glyph>
<glyph name="_percent" format="2">
	<advance width="600"/>
	<outline>
		<contour>
			<point x="143" y="555" type="curve"/>
			<point x="72.6153" y="555"/>
			<point x="1" y="513.291"/>
			<point x="1" y="387" type="curve"/>
			<point x="1" y="258.017"/>
			<point x="74.7302" y="220"/>
			<point x="143" y="220" type="curve"/>
			<point x="210.269" y="220"/>
			<point x="286" y="259.013"/>
			<point x="286" y="387" type="curve"/>
			<point x="286" y="513.448"/>
			<point x="212.357" y="555"/>
		</contour>
		<contour>
			<point x="143" y="445" type="curve"/>
			<point x="174.239" y="445"/>
			<point x="180" y="430"/>
			<point x="180" y="387" type="curve"/>
			<point x="180" y="350"/>
			<point x="174.706" y="330"/>
			<point x="143" y="330" type="curve"/>
			<point x="111.897" y="330"/>
			<point x="106" y="352"/>
			<point x="106" y="387" type="curve"/>
			<point x="106" y="429"/>
			<point x="113.581" y="445"/>
		</contour>
	</outline>
</glyph>
<glyph name="_qtail" format="2">
	<advance width="616"/>
	<anchor x="467" y="92" name="_tailq"/>
	<outline>
		<contour>
			<point x="310" y="323" type="line"/>
			<point x="310" y="195.839" type="line"/>
			<point x="466.917" y="-19" type="line"/>
			<point x="557" y="-19" type="line"/>
			<point x="557" y="32.877" type="line"/>
			<point x="354.226" y="323" type="line"/>
		</contour>
	</outline>
</glyph>
<glyph name="_quote" format="2">
	<advance width="600"/>
	<outline>
		<contour>
			<point x="117.317" y="19.456" type="line"/>
			<point x="120.666" y="-16.4477" type="line"/>
			<point x="127.74" y="-18.1455"/>
			<point x="112.137" y="-60.6496"/>
			<point x="74.5667" y="-132.445" type="curve"/>
			<point x="140.919" y="-146.562" type="line"/>
			<point x="143" y="-147" type="line"/>
			<point x="145.915" y="-147"/>
			<point x="243.203" y="-28.9636"/>
			<point x="228.485" y="96.2423" type="curve"/>
		</contour>
	</outline>
</glyph>
<glyph name="_quotes" format="2">
	<advance width="600"/>
	<outline>
		<contour>
			<point x="96" y="-6" type="line"/>
			<point x="126" y="-28"/>
			<point x="133" y="-54"/>
			<point x="103.246" y="-93.3728" type="curve"/>
			<point x="158.078" y="-110.127" type="line"/>
			<point x="161" y="-111" type="line"/>
			<point x="163.704" y="-111"/>
			<point x="252" y="-12"/>
			<point x="237" y="84" type="curve"/>
		</contour>
		<component base="_dot" xOffset="23" yOffset="-608"/>
	</outline>
</glyph>
<glyph name="_slash" format="2">
	<advance width="600"/>
	<outline>
		<contour>
			<point x="286" y="676" type="line"/>
			<point x="270" y="676" type="line"/>
			<point x="-16" y="-19" type="line"/>
			<point x="108" y="-19" type="line"/>
			<point x="323" y="507" type="line"/>
			<point x="344" y="507" type="line"/>
		</contour>
	</outline>
</glyph>
<glyph name="_slash_diacritics" format="2">
	<advance width="515"/>
	<outline>
		<contour>
			<point x="1.72993" y="244.132" type="line"/>
			<point x="320.38" y="362.824" type="line"/>
			<point x="317.467" y="489.539" type="line"/>
			<point x="3.18253" y="373.413" type="line"/>
		</contour>
	</outline>
</glyph>
<glyph name="_square_bracket" format="2">
	<advance width="600"/>
	<outline>
		<contour>
			<point x="300" y="596" type="line"/>
			<point x="300" y="721" type="line"/>
			<point x="93" y="721" type="line"/>
			<point x="93" y="-221" type="line"/>
			<point x="300" y="-221" type="line"/>
			<point x="300" y="-97" type="line"/>
			<point x="210" y="-97" type="line"/>
			<point x="210" y="596" type="line"/>
		</contour>
	</outline>
</glyph>
<glyph name="_three" format="2">
	<advance width="539"/>
	<outline>
		<contour>
			<point x="162" y="319" type="line"/>
			<point x="294" y="334"/>
			<point x="489" y="338"/>
			<point x="489" y="522" type="curve"/>
			<point x="489" y="639"/>
			<point x="391.302" y="730"/>
			<point x="245" y="730" type="curve"/>
			<point x="197.054" y="730"/>
			<point x="126.65" y="720.124"/>
			<point x="68.1519" y="676.289" type="curve"/>
			<point x="93.0666" y="551.716" type="line"/>
			<point x="131.67" y="572.248"/>
			<point x="182.758" y="596"/>
			<point x="244" y="596" type="curve"/>
			<point x="329.271" y="596"/>
			<point x="367" y="572"/>
			<point x="367" y="514" type="curve"/>
			<point x="367" y="421"/>
			<point x="284" y="417"/>
			<point x="162" y="417" type="curve"/>
		</contour>
	</outline>
</glyph>
<glyph name="_two_question" format="2">
	<advance width="565"/>
	<outline>
		<contour>
			<point x="69" y="282"/>
			<point x="63" y="73" type="curve"/>
			<point x="106" y="20" type="line"/>
			<point x="163" y="20" type="line"/>
			<point x="163" y="212"/>
			<point x="484" y="270"/>
			<point x="484" y="498" type="curve"/>
			<point x="484" y="635"/>
			<point x="406" y="736"/>
			<point x="260" y="736" type="curve"/>
			<point x="212" y="736"/>
			<point x="132" y="736"/>
			<point x="73" y="692" type="curve"/>
			<point x="98" y="568" type="line"/>
			<point x="137" y="588"/>
			<point x="198" y="602"/>
			<point x="259" y="602" type="curve"/>
			<point x="342" y="602"/>
			<point x="362" y="547"/>
			<point x="362" y="500" type="curve"/>
			<point x="362" y="312"/>
		</contour>
	</outline>
</glyph>
<glyph name="_u_cyr" format="2">
	<advance width="499"/>
	<outline>
		<contour>
			<point x="70" y="414" type="curve"/>
			<point x="70" y="292.444"/>
			<point x="155.906" y="211"/>
			<point x="274" y="211" type="curve"/>
			<point x="385" y="212" type="line"/>
			<point x="380" y="337" type="line"/>
			<point x="338" y="336"/>
			<point x="319.366" y="335.792"/>
			<point x="273.476" y="337.977" type="curve"/>
			<point x="228.131" y="339.994"/>
			<point x="182" y="357.293"/>
			<point x="182" y="414" type="curve"/>
			<point x="182" y="502.571"/>
			<point x="70" y="554.861"/>
		</contour>
	</outline>
</glyph>
<glyph name="_ve_cyr" format="2">
	<advance width="556"/>
	<outline>
		<contour>
			<point x="113.749" y="504" type="line"/>
			<point x="99.2428" y="439.381" type="line"/>
			<point x="109" y="415" type="line"/>
			<point x="120" y="415"/>
			<point x="244" y="415"/>
			<point x="255" y="415" type="curve"/>
			<point x="419.923" y="417.062"/>
			<point x="480" y="458"/>
			<point x="480" y="559" type="curve"/>
			<point x="480" y="661"/>
			<point x="399" y="703"/>
			<point x="261" y="702" type="curve"/>
			<point x="98" y="701" type="line"/>
			<point x="120" y="580" type="line"/>
			<point x="282" y="580" type="line"/>
			<point x="338" y="580"/>
			<point x="356" y="575"/>
			<point x="356" y="548" type="curve"/>
			<point x="356" y="517"/>
			<point x="339" y="504"/>
			<point x="279" y="504" type="curve"/>
		</contour>
	</outline>
</glyph>
<glyph name="_w_slash" format="2">
	<advance width="600"/>
	<outline>
		<contour>
			<point x="231" y="2" type="line"/>
			<point x="301" y="287" type="line"/>
			<point x="268" y="287" type="line"/>
			<point x="135" y="699" type="line"/>
			<point x="14" y="699" type="line"/>
			<point x="217" y="2" type="line"/>
		</contour>
	</outline>
</glyph>
<glyph name="_w_slash_2" format="2">
	<advance width="600"/>
	<outline>
		<contour>
			<point x="237" y="-19" type="line"/>
			<point x="275" y="13" type="line"/>
			<point x="382" y="404" type="line"/>
			<point x="392" y="403" type="line"/>
			<point x="383" y="690" type="line"/>
			<point x="335" y="690" type="line"/>
			<point x="186" y="168" type="line"/>
		</contour>
	</outline>
</glyph>
<glyph name="_w_small_slash" format="2">
	<advance width="900"/>
	<outline>
		<contour>
			<point x="216" y="10" type="line"/>
			<point x="255" y="208" type="line"/>
			<point x="249" y="208" type="line"/>
			<point x="153" y="500" type="line"/>
			<point x="24" y="500" type="line"/>
			<point x="201" y="10" type="line"/>
		</contour>
	</outline>
</glyph>
<glyph name="_w_small_slash_2" format="2">
	<advance width="900"/>
	<outline>
		<contour>
			<point x="409" y="0" type="line"/>
			<point x="408" y="173" type="line"/>
			<point x="313" y="490" type="line"/>
			<point x="255" y="490" type="line"/>
			<point x="239" y="285" type="line"/>
			<point x="259" y="285" type="line"/>
			<point x="344" y="15" type="line"/>
		</contour>
	</outline>
</glyph>
<glyph name="_x" format="2">
	<advance width="900"/>
	<outline>
		<contour>
			<point x="368" y="281" type="line"/>
			<point x="348" y="193.284" type="line"/>
			<point x="480" y="0" type="line"/>
			<point x="626" y="0" type="line"/>
			<point x="392.191" y="331" type="line"/>
		</contour>
	</outline>
</glyph>
<glyph name="_y" format="2">
	<advance width="900"/>
	<outline>
		<contour>
			<point x="349" y="25" type="line"/>
			<point x="360" y="25" type="line"/>
			<point x="564.434" y="520" type="line"/>
			<point x="433.768" y="520" type="line"/>
			<point x="308" y="197" type="line"/>
			<point x="290" y="157" type="line"/>
		</contour>
	</outline>
</glyph>
<glyph name="_yQ" format="2">
	<advance width="511"/>
	<outline>
		<contour>
			<point x="332.358" y="8" type="line"/>
			<point x="219.364" y="8" type="line"/>
			<point x="201.594" y="-41.2071" type="line"/>
			<point x="180.945" y="-97.7344"/>
			<point x="145.599" y="-103.466"/>
			<point x="101.375" y="-82.6271" type="curve"/>
			<point x="114.674" y="-218.575" type="line"/>
			<point x="197.223" y="-234.556"/>
			<point x="258.018" y="-190.503"/>
			<point x="292.349" y="-100.1" type="curve"/>
		</contour>
	</outline>
</glyph>
<glyph name="_ya_cyr" format="2">
	<advance width="499"/>
	<outline>
		<contour>
			<point x="70" y="454" type="curve"/>
			<point x="70" y="332"/>
			<point x="156" y="291"/>
			<point x="274" y="291" type="curve"/>
			<point x="313" y="291"/>
			<point x="351" y="291"/>
			<point x="385" y="292" type="curve"/>
			<point x="380" y="377" type="line"/>
			<point x="338" y="376"/>
			<point x="319" y="376"/>
			<point x="273" y="378" type="curve"/>
			<point x="228" y="380"/>
			<point x="182" y="397"/>
			<point x="182" y="454" type="curve"/>
			<point x="182" y="543"/>
			<point x="70" y="595"/>
		</contour>
		<component base="_u_cyr" yScale="-1" yOffset="862"/>
	</outline>
</glyph>
<glyph name="_z" format="2">
	<advance width="481"/>
	<outline>
		<contour>
			<point x="449" y="427" type="line"/>
			<point x="407" y="499" type="line"/>
			<point x="348" y="499" type="line"/>
			<point x="167" y="210" type="line"/>
			<point x="150" y="70" type="line"/>
			<point x="195" y="70" type="line"/>
		</contour>
	</outline>
</glyph>
<glyph name="_ze_cyr" format="2">
	<advance width="539"/>
	<outline>
		<contour>
			<point x="162" y="236" type="line"/>
			<point x="266" y="252"/>
			<point x="479" y="238"/>
			<point x="479" y="370" type="curve"/>
			<point x="479" y="494"/>
			<point x="392" y="527"/>
			<point x="285" y="527" type="curve"/>
			<point x="181" y="527"/>
			<point x="148" y="508"/>
			<point x="87" y="487" type="curve"/>
			<point x="113" y="363" type="line"/>
			<point x="152" y="387"/>
			<point x="201" y="393"/>
			<point x="267" y="393" type="curve"/>
			<point x="332" y="393"/>
			<point x="357" y="381"/>
			<point x="357" y="361" type="curve"/>
			<point x="357" y="333"/>
			<point x="297" y="306"/>
			<point x="162" y="305" type="curve"/>
		</contour>
	</outline>
</glyph>
<glyph name="ball" format="2">
	<advance width="682"/>
	<outline>
		<contour>
			<point x="341" y="430" type="curve"/>
			<point x="364" y="430"/>
			<point x="383" y="449"/>
			<point x="383" y="472" type="curve" smooth="yes"/>
			<point x="383" y="496"/>
			<point x="364" y="515"/>
			<point x="341" y="515" type="curve"/>
			<point x="317" y="515"/>
			<point x="298" y="496"/>
			<point x="298" y="472" type="curve" smooth="yes"/>
			<point x="298" y="449"/>
			<point x="317" y="430"/>
		</contour>
	</outline>
</glyph>
<glyph name="five-glyph" format="2">
	<advance width="447"/>
	<outline>
		<contour>
			<point x="457" y="277" type="line"/>
			<point x="457" y="361"/>
			<point x="343" y="375"/>
			<point x="343" y="267" type="curve"/>
			<point x="343" y="264" type="line"/>
			<point x="343" y="178"/>
			<point x="307" y="121"/>
			<point x="221" y="121" type="curve"/>
			<point x="172" y="121"/>
			<point x="116" y="133"/>
			<point x="73" y="166" type="curve"/>
			<point x="42" y="49" type="line"/>
			<point x="96" y="11"/>
			<point x="159" y="-8"/>
			<point x="221" y="-9" type="curve"/>
			<point x="367" y="-9"/>
			<point x="457" y="106"/>
			<point x="457" y="255" type="curve"/>
		</contour>
	</outline>
</glyph>
<glyph name="newGlyphaaa" format="2">
	<advance width="600"/>
	<outline>
		<contour>
			<point x="398.5" y="163" type="curve"/>
			<point x="453.418" y="163"/>
			<point x="504" y="234.239"/>
			<point x="504" y="317.5" type="curve"/>
			<point x="504" y="400.761"/>
			<point x="453.418" y="472"/>
			<point x="398.5" y="472" type="curve"/>
			<point x="343.582" y="472"/>
			<point x="293" y="400.761"/>
			<point x="293" y="317.5" type="curve"/>
			<point x="293" y="234.239"/>
			<point x="343.582" y="163"/>
		</contour>
	</outline>
</glyph>
<glyph name="y.001" format="2">
	<advance width="478"/>
	<outline>
		<contour>
			<point x="140" y="500" type="line"/>
			<point x="15" y="500" type="line"/>
			<point x="178" y="0" type="line"/>
			<point x="248" y="0" type="line"/>
			<point x="274.301" y="124.841" type="line"/>
			<point x="247.954" y="123.291" type="line"/>
		</contour>
		<contour>
			<point x="279.51" y="-99.1817" type="curve"/>
			<point x="462" y="500" type="line"/>
			<point x="337" y="500" type="line"/>
			<point x="188.42" y="-42.2659" type="line"/>
			<point x="171.713" y="-98.5616"/>
			<point x="131.453" y="-103.266"/>
			<point x="88.3694" y="-82.5706" type="curve"/>
			<point x="101.674" y="-218.575" type="line"/>
			<point x="183.831" y="-234.481"/>
			<point x="249.468" y="-191.619"/>
		</contour>
	</outline>
</glyph>
